<?xml version="1.0" encoding="UTF-8"?>
<svg xmlns="http://www.w3.org/2000/svg" width="167" height="20" viewBox="0 0 167 20" fill="none">
  <mask id="path-1-outside-1_1252_32319" maskUnits="userSpaceOnUse" x="-1" y="-0.5" width="169" height="21" fill="black">
    <rect fill="white" x="-1" y="-0.5" width="169" height="21"></rect>
    <path d="M6.98656 19.596C5.73856 19.596 4.61856 19.308 3.62656 18.732C2.63456 18.14 1.85056 17.34 1.27456 16.332C0.698563 15.324 0.402563 14.188 0.386563 12.924V1.98C0.386563 1.612 0.498563 1.316 0.722563 1.092C0.962563 0.868 1.25856 0.756 1.61056 0.756C1.97856 0.756 2.27456 0.868 2.49856 1.092C2.72256 1.316 2.83456 1.612 2.83456 1.98V8.46C3.39456 7.788 4.06656 7.26 4.85056 6.876C5.65056 6.476 6.52256 6.276 7.46656 6.276C8.63456 6.276 9.68256 6.572 10.6106 7.164C11.5386 7.74 12.2666 8.532 12.7946 9.54C13.3386 10.532 13.6106 11.66 13.6106 12.924C13.6106 14.188 13.3146 15.324 12.7226 16.332C12.1466 17.34 11.3626 18.14 10.3706 18.732C9.37856 19.308 8.25056 19.596 6.98656 19.596ZM6.98656 17.436C7.80256 17.436 8.53056 17.244 9.17056 16.86C9.81056 16.46 10.3146 15.916 10.6826 15.228C11.0666 14.54 11.2586 13.772 11.2586 12.924C11.2586 12.06 11.0666 11.292 10.6826 10.62C10.3146 9.948 9.81056 9.42 9.17056 9.036C8.53056 8.636 7.80256 8.436 6.98656 8.436C6.18656 8.436 5.45856 8.636 4.80256 9.036C4.16256 9.42 3.65856 9.948 3.29056 10.62C2.92256 11.292 2.73856 12.06 2.73856 12.924C2.73856 13.772 2.92256 14.54 3.29056 15.228C3.65856 15.916 4.16256 16.46 4.80256 16.86C5.45856 17.244 6.18656 17.436 6.98656 17.436ZM18.4376 11.292C18.4376 10.332 18.6696 9.476 19.1336 8.724C19.6136 7.956 20.2536 7.348 21.0536 6.9C21.8536 6.452 22.7336 6.228 23.6936 6.228C24.6536 6.228 25.3656 6.388 25.8296 6.708C26.3096 7.012 26.4936 7.38 26.3816 7.812C26.3336 8.036 26.2376 8.212 26.0936 8.34C25.9656 8.452 25.8136 8.524 25.6376 8.556C25.4616 8.588 25.2696 8.58 25.0616 8.532C24.0376 8.324 23.1176 8.308 22.3016 8.484C21.4856 8.66 20.8376 8.988 20.3576 9.468C19.8936 9.948 19.6616 10.556 19.6616 11.292H18.4376ZM18.4616 19.5C18.0776 19.5 17.7816 19.404 17.5736 19.212C17.3656 19.004 17.2616 18.7 17.2616 18.3V7.572C17.2616 7.188 17.3656 6.892 17.5736 6.684C17.7816 6.476 18.0776 6.372 18.4616 6.372C18.8616 6.372 19.1576 6.476 19.3496 6.684C19.5576 6.876 19.6616 7.172 19.6616 7.572V18.3C19.6616 18.684 19.5576 18.98 19.3496 19.188C19.1576 19.396 18.8616 19.5 18.4616 19.5ZM33.4445 19.596C32.2765 19.596 31.2285 19.308 30.3005 18.732C29.3725 18.14 28.6365 17.348 28.0925 16.356C27.5645 15.348 27.3005 14.212 27.3005 12.948C27.3005 11.684 27.5885 10.548 28.1645 9.54C28.7565 8.532 29.5485 7.74 30.5405 7.164C31.5485 6.572 32.6765 6.276 33.9245 6.276C35.1725 6.276 36.2925 6.572 37.2845 7.164C38.2765 7.74 39.0605 8.532 39.6365 9.54C40.2285 10.548 40.5245 11.684 40.5245 12.948H39.5885C39.5885 14.212 39.3165 15.348 38.7725 16.356C38.2445 17.348 37.5165 18.14 36.5885 18.732C35.6605 19.308 34.6125 19.596 33.4445 19.596ZM33.9245 17.436C34.7405 17.436 35.4685 17.244 36.1085 16.86C36.7485 16.46 37.2525 15.924 37.6205 15.252C37.9885 14.564 38.1725 13.796 38.1725 12.948C38.1725 12.084 37.9885 11.316 37.6205 10.644C37.2525 9.956 36.7485 9.42 36.1085 9.036C35.4685 8.636 34.7405 8.436 33.9245 8.436C33.1245 8.436 32.3965 8.636 31.7405 9.036C31.1005 9.42 30.5885 9.956 30.2045 10.644C29.8365 11.316 29.6525 12.084 29.6525 12.948C29.6525 13.796 29.8365 14.564 30.2045 15.252C30.5885 15.924 31.1005 16.46 31.7405 16.86C32.3965 17.244 33.1245 17.436 33.9245 17.436ZM39.3005 19.524C38.9485 19.524 38.6525 19.412 38.4125 19.188C38.1885 18.948 38.0765 18.652 38.0765 18.3V14.628L38.5325 12.084L40.5245 12.948V18.3C40.5245 18.652 40.4045 18.948 40.1645 19.188C39.9405 19.412 39.6525 19.524 39.3005 19.524ZM55.2558 19.524C54.9038 19.524 54.6078 19.412 54.3678 19.188C54.1438 18.948 54.0318 18.652 54.0318 18.3V12.396C54.0318 11.484 53.8638 10.74 53.5278 10.164C53.1918 9.588 52.7358 9.164 52.1598 8.892C51.5998 8.604 50.9518 8.46 50.2158 8.46C49.5438 8.46 48.9358 8.596 48.3918 8.868C47.8478 9.14 47.4158 9.508 47.0958 9.972C46.7758 10.42 46.6158 10.94 46.6158 11.532H45.1038C45.1038 10.524 45.3438 9.628 45.8238 8.844C46.3198 8.044 46.9918 7.412 47.8398 6.948C48.6878 6.484 49.6398 6.252 50.6958 6.252C51.7998 6.252 52.7838 6.492 53.6478 6.972C54.5278 7.436 55.2158 8.124 55.7118 9.036C56.2238 9.948 56.4798 11.068 56.4798 12.396V18.3C56.4798 18.652 56.3598 18.948 56.1198 19.188C55.8958 19.412 55.6078 19.524 55.2558 19.524ZM45.3918 19.524C45.0398 19.524 44.7438 19.412 44.5038 19.188C44.2798 18.948 44.1678 18.652 44.1678 18.3V7.596C44.1678 7.228 44.2798 6.932 44.5038 6.708C44.7438 6.484 45.0398 6.372 45.3918 6.372C45.7598 6.372 46.0558 6.484 46.2798 6.708C46.5038 6.932 46.6158 7.228 46.6158 7.596V18.3C46.6158 18.652 46.5038 18.948 46.2798 19.188C46.0558 19.412 45.7598 19.524 45.3918 19.524ZM66.4792 19.596C65.2312 19.596 64.1032 19.308 63.0952 18.732C62.1032 18.14 61.3112 17.34 60.7192 16.332C60.1432 15.324 59.8552 14.188 59.8552 12.924C59.8552 11.66 60.1192 10.532 60.6472 9.54C61.1912 8.532 61.9272 7.74 62.8552 7.164C63.7832 6.572 64.8312 6.276 65.9992 6.276C66.9432 6.276 67.8152 6.476 68.6152 6.876C69.4152 7.26 70.0872 7.788 70.6312 8.46V1.98C70.6312 1.612 70.7432 1.316 70.9672 1.092C71.2072 0.868 71.5032 0.756 71.8552 0.756C72.2232 0.756 72.5192 0.868 72.7432 1.092C72.9672 1.316 73.0792 1.612 73.0792 1.98V12.924C73.0792 14.188 72.7832 15.324 72.1912 16.332C71.6152 17.34 70.8312 18.14 69.8392 18.732C68.8472 19.308 67.7272 19.596 66.4792 19.596ZM66.4792 17.436C67.2952 17.436 68.0232 17.244 68.6632 16.86C69.3032 16.46 69.8072 15.916 70.1752 15.228C70.5432 14.54 70.7272 13.772 70.7272 12.924C70.7272 12.06 70.5432 11.292 70.1752 10.62C69.8072 9.948 69.3032 9.42 68.6632 9.036C68.0232 8.636 67.2952 8.436 66.4792 8.436C65.6792 8.436 64.9512 8.636 64.2952 9.036C63.6552 9.42 63.1432 9.948 62.7592 10.62C62.3912 11.292 62.2072 12.06 62.2072 12.924C62.2072 13.772 62.3912 14.54 62.7592 15.228C63.1432 15.916 63.6552 16.46 64.2952 16.86C64.9512 17.244 65.6792 17.436 66.4792 17.436ZM83.3542 19.596C82.0742 19.596 80.9302 19.308 79.9222 18.732C78.9302 18.14 78.1462 17.348 77.5702 16.356C77.0102 15.348 76.7302 14.212 76.7302 12.948C76.7302 11.652 77.0102 10.5 77.5702 9.492C78.1302 8.484 78.8982 7.7 79.8742 7.14C80.8502 6.564 81.9702 6.276 83.2342 6.276C84.1782 6.276 85.0422 6.46 85.8262 6.828C86.6102 7.18 87.3142 7.716 87.9382 8.436C88.1622 8.692 88.2422 8.956 88.1782 9.228C88.1142 9.5 87.9382 9.74 87.6502 9.948C87.4262 10.108 87.1782 10.164 86.9062 10.116C86.6342 10.052 86.3862 9.908 86.1622 9.684C85.3782 8.852 84.4022 8.436 83.2342 8.436C82.4182 8.436 81.6982 8.628 81.0742 9.012C80.4502 9.38 79.9622 9.9 79.6102 10.572C79.2582 11.244 79.0822 12.036 79.0822 12.948C79.0822 13.812 79.2582 14.58 79.6102 15.252C79.9782 15.924 80.4822 16.46 81.1222 16.86C81.7622 17.244 82.5062 17.436 83.3542 17.436C83.9142 17.436 84.4022 17.372 84.8182 17.244C85.2502 17.1 85.6422 16.884 85.9942 16.596C86.2502 16.388 86.5142 16.276 86.7862 16.26C87.0582 16.228 87.2982 16.3 87.5062 16.476C87.7782 16.7 87.9302 16.956 87.9622 17.244C87.9942 17.516 87.8982 17.764 87.6742 17.988C86.5222 19.06 85.0822 19.596 83.3542 19.596ZM97.7683 19.596C96.4723 19.596 95.3283 19.316 94.3363 18.756C93.3443 18.18 92.5603 17.396 91.9843 16.404C91.4243 15.396 91.1443 14.244 91.1443 12.948C91.1443 11.636 91.4243 10.484 91.9843 9.492C92.5603 8.484 93.3443 7.7 94.3363 7.14C95.3283 6.564 96.4723 6.276 97.7683 6.276C99.0483 6.276 100.184 6.564 101.176 7.14C102.168 7.7 102.944 8.484 103.504 9.492C104.08 10.484 104.368 11.636 104.368 12.948C104.368 14.244 104.088 15.396 103.528 16.404C102.968 17.396 102.192 18.18 101.2 18.756C100.208 19.316 99.0643 19.596 97.7683 19.596ZM97.7683 17.436C98.6003 17.436 99.3363 17.244 99.9763 16.86C100.616 16.476 101.112 15.948 101.464 15.276C101.832 14.604 102.016 13.828 102.016 12.948C102.016 12.068 101.832 11.292 101.464 10.62C101.112 9.932 100.616 9.396 99.9763 9.012C99.3363 8.628 98.6003 8.436 97.7683 8.436C96.9363 8.436 96.2003 8.628 95.5603 9.012C94.9203 9.396 94.4163 9.932 94.0483 10.62C93.6803 11.292 93.4963 12.068 93.4963 12.948C93.4963 13.828 93.6803 14.604 94.0483 15.276C94.4163 15.948 94.9203 16.476 95.5603 16.86C96.2003 17.244 96.9363 17.436 97.7683 17.436ZM125.244 19.524C124.892 19.524 124.596 19.412 124.356 19.188C124.132 18.948 124.02 18.652 124.02 18.3V11.436C124.02 10.428 123.772 9.684 123.276 9.204C122.78 8.708 122.132 8.46 121.332 8.46C120.5 8.46 119.812 8.748 119.268 9.324C118.74 9.9 118.476 10.636 118.476 11.532H116.484C116.484 10.492 116.708 9.58 117.156 8.796C117.604 7.996 118.228 7.372 119.028 6.924C119.844 6.476 120.772 6.252 121.812 6.252C122.724 6.252 123.532 6.452 124.236 6.852C124.94 7.252 125.484 7.844 125.868 8.628C126.268 9.396 126.468 10.332 126.468 11.436V18.3C126.468 18.652 126.356 18.948 126.132 19.188C125.908 19.412 125.612 19.524 125.244 19.524ZM109.236 19.524C108.884 19.524 108.588 19.412 108.348 19.188C108.124 18.948 108.012 18.652 108.012 18.3V7.62C108.012 7.252 108.124 6.956 108.348 6.732C108.588 6.508 108.884 6.396 109.236 6.396C109.604 6.396 109.9 6.508 110.124 6.732C110.348 6.956 110.46 7.252 110.46 7.62V18.3C110.46 18.652 110.348 18.948 110.124 19.188C109.9 19.412 109.604 19.524 109.236 19.524ZM117.252 19.524C116.9 19.524 116.604 19.412 116.364 19.188C116.14 18.948 116.028 18.652 116.028 18.3V11.436C116.028 10.428 115.78 9.684 115.284 9.204C114.788 8.708 114.14 8.46 113.34 8.46C112.508 8.46 111.82 8.748 111.276 9.324C110.732 9.9 110.46 10.636 110.46 11.532H108.948C108.948 10.492 109.156 9.58 109.572 8.796C109.988 7.996 110.564 7.372 111.3 6.924C112.036 6.476 112.876 6.252 113.82 6.252C114.732 6.252 115.54 6.452 116.244 6.852C116.948 7.252 117.492 7.844 117.876 8.628C118.276 9.396 118.476 10.332 118.476 11.436V18.3C118.476 18.652 118.364 18.948 118.14 19.188C117.916 19.412 117.62 19.524 117.252 19.524ZM147.767 19.524C147.415 19.524 147.119 19.412 146.879 19.188C146.655 18.948 146.543 18.652 146.543 18.3V11.436C146.543 10.428 146.295 9.684 145.799 9.204C145.303 8.708 144.655 8.46 143.855 8.46C143.023 8.46 142.335 8.748 141.791 9.324C141.263 9.9 140.999 10.636 140.999 11.532H139.007C139.007 10.492 139.231 9.58 139.679 8.796C140.127 7.996 140.751 7.372 141.551 6.924C142.367 6.476 143.295 6.252 144.335 6.252C145.247 6.252 146.055 6.452 146.759 6.852C147.463 7.252 148.007 7.844 148.391 8.628C148.791 9.396 148.991 10.332 148.991 11.436V18.3C148.991 18.652 148.879 18.948 148.655 19.188C148.431 19.412 148.135 19.524 147.767 19.524ZM131.759 19.524C131.407 19.524 131.111 19.412 130.871 19.188C130.647 18.948 130.535 18.652 130.535 18.3V7.62C130.535 7.252 130.647 6.956 130.871 6.732C131.111 6.508 131.407 6.396 131.759 6.396C132.127 6.396 132.423 6.508 132.647 6.732C132.871 6.956 132.983 7.252 132.983 7.62V18.3C132.983 18.652 132.871 18.948 132.647 19.188C132.423 19.412 132.127 19.524 131.759 19.524ZM139.775 19.524C139.423 19.524 139.127 19.412 138.887 19.188C138.663 18.948 138.551 18.652 138.551 18.3V11.436C138.551 10.428 138.303 9.684 137.807 9.204C137.311 8.708 136.663 8.46 135.863 8.46C135.031 8.46 134.343 8.748 133.799 9.324C133.255 9.9 132.983 10.636 132.983 11.532H131.471C131.471 10.492 131.679 9.58 132.095 8.796C132.511 7.996 133.087 7.372 133.823 6.924C134.559 6.476 135.399 6.252 136.343 6.252C137.255 6.252 138.063 6.452 138.767 6.852C139.471 7.252 140.015 7.844 140.399 8.628C140.799 9.396 140.999 10.332 140.999 11.436V18.3C140.999 18.652 140.887 18.948 140.663 19.188C140.439 19.412 140.143 19.524 139.775 19.524ZM154.522 19.5C154.17 19.5 153.874 19.388 153.634 19.164C153.41 18.924 153.298 18.628 153.298 18.276V7.596C153.298 7.228 153.41 6.932 153.634 6.708C153.874 6.484 154.17 6.372 154.522 6.372C154.89 6.372 155.186 6.484 155.41 6.708C155.634 6.932 155.746 7.228 155.746 7.596V18.276C155.746 18.628 155.634 18.924 155.41 19.164C155.186 19.388 154.89 19.5 154.522 19.5ZM154.522 4.236C154.09 4.236 153.714 4.084 153.394 3.78C153.09 3.46 152.938 3.084 152.938 2.652C152.938 2.22 153.09 1.852 153.394 1.548C153.714 1.228 154.09 1.068 154.522 1.068C154.954 1.068 155.322 1.228 155.626 1.548C155.946 1.852 156.106 2.22 156.106 2.652C156.106 3.084 155.946 3.46 155.626 3.78C155.322 4.084 154.954 4.236 154.522 4.236ZM165.077 19.5C164.277 19.5 163.557 19.3 162.917 18.9C162.277 18.484 161.773 17.924 161.405 17.22C161.037 16.516 160.853 15.724 160.853 14.844V3.396C160.853 3.044 160.965 2.756 161.189 2.532C161.413 2.308 161.701 2.196 162.053 2.196C162.405 2.196 162.693 2.308 162.917 2.532C163.141 2.756 163.253 3.044 163.253 3.396V14.844C163.253 15.484 163.429 16.02 163.781 16.452C164.133 16.884 164.565 17.1 165.077 17.1H165.893C166.181 17.1 166.421 17.212 166.613 17.436C166.821 17.66 166.925 17.948 166.925 18.3C166.925 18.652 166.789 18.94 166.517 19.164C166.261 19.388 165.925 19.5 165.509 19.5H165.077ZM159.749 8.916C159.413 8.916 159.141 8.82 158.933 8.628C158.725 8.436 158.621 8.196 158.621 7.908C158.621 7.588 158.725 7.332 158.933 7.14C159.141 6.948 159.413 6.852 159.749 6.852H165.293C165.629 6.852 165.901 6.948 166.109 7.14C166.317 7.332 166.421 7.588 166.421 7.908C166.421 8.196 166.317 8.436 166.109 8.628C165.901 8.82 165.629 8.916 165.293 8.916H159.749Z"></path>
  </mask>
  <path d="M6.98656 19.596C5.73856 19.596 4.61856 19.308 3.62656 18.732C2.63456 18.14 1.85056 17.34 1.27456 16.332C0.698563 15.324 0.402563 14.188 0.386563 12.924V1.98C0.386563 1.612 0.498563 1.316 0.722563 1.092C0.962563 0.868 1.25856 0.756 1.61056 0.756C1.97856 0.756 2.27456 0.868 2.49856 1.092C2.72256 1.316 2.83456 1.612 2.83456 1.98V8.46C3.39456 7.788 4.06656 7.26 4.85056 6.876C5.65056 6.476 6.52256 6.276 7.46656 6.276C8.63456 6.276 9.68256 6.572 10.6106 7.164C11.5386 7.74 12.2666 8.532 12.7946 9.54C13.3386 10.532 13.6106 11.66 13.6106 12.924C13.6106 14.188 13.3146 15.324 12.7226 16.332C12.1466 17.34 11.3626 18.14 10.3706 18.732C9.37856 19.308 8.25056 19.596 6.98656 19.596ZM6.98656 17.436C7.80256 17.436 8.53056 17.244 9.17056 16.86C9.81056 16.46 10.3146 15.916 10.6826 15.228C11.0666 14.54 11.2586 13.772 11.2586 12.924C11.2586 12.06 11.0666 11.292 10.6826 10.62C10.3146 9.948 9.81056 9.42 9.17056 9.036C8.53056 8.636 7.80256 8.436 6.98656 8.436C6.18656 8.436 5.45856 8.636 4.80256 9.036C4.16256 9.42 3.65856 9.948 3.29056 10.62C2.92256 11.292 2.73856 12.06 2.73856 12.924C2.73856 13.772 2.92256 14.54 3.29056 15.228C3.65856 15.916 4.16256 16.46 4.80256 16.86C5.45856 17.244 6.18656 17.436 6.98656 17.436ZM18.4376 11.292C18.4376 10.332 18.6696 9.476 19.1336 8.724C19.6136 7.956 20.2536 7.348 21.0536 6.9C21.8536 6.452 22.7336 6.228 23.6936 6.228C24.6536 6.228 25.3656 6.388 25.8296 6.708C26.3096 7.012 26.4936 7.38 26.3816 7.812C26.3336 8.036 26.2376 8.212 26.0936 8.34C25.9656 8.452 25.8136 8.524 25.6376 8.556C25.4616 8.588 25.2696 8.58 25.0616 8.532C24.0376 8.324 23.1176 8.308 22.3016 8.484C21.4856 8.66 20.8376 8.988 20.3576 9.468C19.8936 9.948 19.6616 10.556 19.6616 11.292H18.4376ZM18.4616 19.5C18.0776 19.5 17.7816 19.404 17.5736 19.212C17.3656 19.004 17.2616 18.7 17.2616 18.3V7.572C17.2616 7.188 17.3656 6.892 17.5736 6.684C17.7816 6.476 18.0776 6.372 18.4616 6.372C18.8616 6.372 19.1576 6.476 19.3496 6.684C19.5576 6.876 19.6616 7.172 19.6616 7.572V18.3C19.6616 18.684 19.5576 18.98 19.3496 19.188C19.1576 19.396 18.8616 19.5 18.4616 19.5ZM33.4445 19.596C32.2765 19.596 31.2285 19.308 30.3005 18.732C29.3725 18.14 28.6365 17.348 28.0925 16.356C27.5645 15.348 27.3005 14.212 27.3005 12.948C27.3005 11.684 27.5885 10.548 28.1645 9.54C28.7565 8.532 29.5485 7.74 30.5405 7.164C31.5485 6.572 32.6765 6.276 33.9245 6.276C35.1725 6.276 36.2925 6.572 37.2845 7.164C38.2765 7.74 39.0605 8.532 39.6365 9.54C40.2285 10.548 40.5245 11.684 40.5245 12.948H39.5885C39.5885 14.212 39.3165 15.348 38.7725 16.356C38.2445 17.348 37.5165 18.14 36.5885 18.732C35.6605 19.308 34.6125 19.596 33.4445 19.596ZM33.9245 17.436C34.7405 17.436 35.4685 17.244 36.1085 16.86C36.7485 16.46 37.2525 15.924 37.6205 15.252C37.9885 14.564 38.1725 13.796 38.1725 12.948C38.1725 12.084 37.9885 11.316 37.6205 10.644C37.2525 9.956 36.7485 9.42 36.1085 9.036C35.4685 8.636 34.7405 8.436 33.9245 8.436C33.1245 8.436 32.3965 8.636 31.7405 9.036C31.1005 9.42 30.5885 9.956 30.2045 10.644C29.8365 11.316 29.6525 12.084 29.6525 12.948C29.6525 13.796 29.8365 14.564 30.2045 15.252C30.5885 15.924 31.1005 16.46 31.7405 16.86C32.3965 17.244 33.1245 17.436 33.9245 17.436ZM39.3005 19.524C38.9485 19.524 38.6525 19.412 38.4125 19.188C38.1885 18.948 38.0765 18.652 38.0765 18.3V14.628L38.5325 12.084L40.5245 12.948V18.3C40.5245 18.652 40.4045 18.948 40.1645 19.188C39.9405 19.412 39.6525 19.524 39.3005 19.524ZM55.2558 19.524C54.9038 19.524 54.6078 19.412 54.3678 19.188C54.1438 18.948 54.0318 18.652 54.0318 18.3V12.396C54.0318 11.484 53.8638 10.74 53.5278 10.164C53.1918 9.588 52.7358 9.164 52.1598 8.892C51.5998 8.604 50.9518 8.46 50.2158 8.46C49.5438 8.46 48.9358 8.596 48.3918 8.868C47.8478 9.14 47.4158 9.508 47.0958 9.972C46.7758 10.42 46.6158 10.94 46.6158 11.532H45.1038C45.1038 10.524 45.3438 9.628 45.8238 8.844C46.3198 8.044 46.9918 7.412 47.8398 6.948C48.6878 6.484 49.6398 6.252 50.6958 6.252C51.7998 6.252 52.7838 6.492 53.6478 6.972C54.5278 7.436 55.2158 8.124 55.7118 9.036C56.2238 9.948 56.4798 11.068 56.4798 12.396V18.3C56.4798 18.652 56.3598 18.948 56.1198 19.188C55.8958 19.412 55.6078 19.524 55.2558 19.524ZM45.3918 19.524C45.0398 19.524 44.7438 19.412 44.5038 19.188C44.2798 18.948 44.1678 18.652 44.1678 18.3V7.596C44.1678 7.228 44.2798 6.932 44.5038 6.708C44.7438 6.484 45.0398 6.372 45.3918 6.372C45.7598 6.372 46.0558 6.484 46.2798 6.708C46.5038 6.932 46.6158 7.228 46.6158 7.596V18.3C46.6158 18.652 46.5038 18.948 46.2798 19.188C46.0558 19.412 45.7598 19.524 45.3918 19.524ZM66.4792 19.596C65.2312 19.596 64.1032 19.308 63.0952 18.732C62.1032 18.14 61.3112 17.34 60.7192 16.332C60.1432 15.324 59.8552 14.188 59.8552 12.924C59.8552 11.66 60.1192 10.532 60.6472 9.54C61.1912 8.532 61.9272 7.74 62.8552 7.164C63.7832 6.572 64.8312 6.276 65.9992 6.276C66.9432 6.276 67.8152 6.476 68.6152 6.876C69.4152 7.26 70.0872 7.788 70.6312 8.46V1.98C70.6312 1.612 70.7432 1.316 70.9672 1.092C71.2072 0.868 71.5032 0.756 71.8552 0.756C72.2232 0.756 72.5192 0.868 72.7432 1.092C72.9672 1.316 73.0792 1.612 73.0792 1.98V12.924C73.0792 14.188 72.7832 15.324 72.1912 16.332C71.6152 17.34 70.8312 18.14 69.8392 18.732C68.8472 19.308 67.7272 19.596 66.4792 19.596ZM66.4792 17.436C67.2952 17.436 68.0232 17.244 68.6632 16.86C69.3032 16.46 69.8072 15.916 70.1752 15.228C70.5432 14.54 70.7272 13.772 70.7272 12.924C70.7272 12.06 70.5432 11.292 70.1752 10.62C69.8072 9.948 69.3032 9.42 68.6632 9.036C68.0232 8.636 67.2952 8.436 66.4792 8.436C65.6792 8.436 64.9512 8.636 64.2952 9.036C63.6552 9.42 63.1432 9.948 62.7592 10.62C62.3912 11.292 62.2072 12.06 62.2072 12.924C62.2072 13.772 62.3912 14.54 62.7592 15.228C63.1432 15.916 63.6552 16.46 64.2952 16.86C64.9512 17.244 65.6792 17.436 66.4792 17.436ZM83.3542 19.596C82.0742 19.596 80.9302 19.308 79.9222 18.732C78.9302 18.14 78.1462 17.348 77.5702 16.356C77.0102 15.348 76.7302 14.212 76.7302 12.948C76.7302 11.652 77.0102 10.5 77.5702 9.492C78.1302 8.484 78.8982 7.7 79.8742 7.14C80.8502 6.564 81.9702 6.276 83.2342 6.276C84.1782 6.276 85.0422 6.46 85.8262 6.828C86.6102 7.18 87.3142 7.716 87.9382 8.436C88.1622 8.692 88.2422 8.956 88.1782 9.228C88.1142 9.5 87.9382 9.74 87.6502 9.948C87.4262 10.108 87.1782 10.164 86.9062 10.116C86.6342 10.052 86.3862 9.908 86.1622 9.684C85.3782 8.852 84.4022 8.436 83.2342 8.436C82.4182 8.436 81.6982 8.628 81.0742 9.012C80.4502 9.38 79.9622 9.9 79.6102 10.572C79.2582 11.244 79.0822 12.036 79.0822 12.948C79.0822 13.812 79.2582 14.58 79.6102 15.252C79.9782 15.924 80.4822 16.46 81.1222 16.86C81.7622 17.244 82.5062 17.436 83.3542 17.436C83.9142 17.436 84.4022 17.372 84.8182 17.244C85.2502 17.1 85.6422 16.884 85.9942 16.596C86.2502 16.388 86.5142 16.276 86.7862 16.26C87.0582 16.228 87.2982 16.3 87.5062 16.476C87.7782 16.7 87.9302 16.956 87.9622 17.244C87.9942 17.516 87.8982 17.764 87.6742 17.988C86.5222 19.06 85.0822 19.596 83.3542 19.596ZM97.7683 19.596C96.4723 19.596 95.3283 19.316 94.3363 18.756C93.3443 18.18 92.5603 17.396 91.9843 16.404C91.4243 15.396 91.1443 14.244 91.1443 12.948C91.1443 11.636 91.4243 10.484 91.9843 9.492C92.5603 8.484 93.3443 7.7 94.3363 7.14C95.3283 6.564 96.4723 6.276 97.7683 6.276C99.0483 6.276 100.184 6.564 101.176 7.14C102.168 7.7 102.944 8.484 103.504 9.492C104.08 10.484 104.368 11.636 104.368 12.948C104.368 14.244 104.088 15.396 103.528 16.404C102.968 17.396 102.192 18.18 101.2 18.756C100.208 19.316 99.0643 19.596 97.7683 19.596ZM97.7683 17.436C98.6003 17.436 99.3363 17.244 99.9763 16.86C100.616 16.476 101.112 15.948 101.464 15.276C101.832 14.604 102.016 13.828 102.016 12.948C102.016 12.068 101.832 11.292 101.464 10.62C101.112 9.932 100.616 9.396 99.9763 9.012C99.3363 8.628 98.6003 8.436 97.7683 8.436C96.9363 8.436 96.2003 8.628 95.5603 9.012C94.9203 9.396 94.4163 9.932 94.0483 10.62C93.6803 11.292 93.4963 12.068 93.4963 12.948C93.4963 13.828 93.6803 14.604 94.0483 15.276C94.4163 15.948 94.9203 16.476 95.5603 16.86C96.2003 17.244 96.9363 17.436 97.7683 17.436ZM125.244 19.524C124.892 19.524 124.596 19.412 124.356 19.188C124.132 18.948 124.02 18.652 124.02 18.3V11.436C124.02 10.428 123.772 9.684 123.276 9.204C122.78 8.708 122.132 8.46 121.332 8.46C120.5 8.46 119.812 8.748 119.268 9.324C118.74 9.9 118.476 10.636 118.476 11.532H116.484C116.484 10.492 116.708 9.58 117.156 8.796C117.604 7.996 118.228 7.372 119.028 6.924C119.844 6.476 120.772 6.252 121.812 6.252C122.724 6.252 123.532 6.452 124.236 6.852C124.94 7.252 125.484 7.844 125.868 8.628C126.268 9.396 126.468 10.332 126.468 11.436V18.3C126.468 18.652 126.356 18.948 126.132 19.188C125.908 19.412 125.612 19.524 125.244 19.524ZM109.236 19.524C108.884 19.524 108.588 19.412 108.348 19.188C108.124 18.948 108.012 18.652 108.012 18.3V7.62C108.012 7.252 108.124 6.956 108.348 6.732C108.588 6.508 108.884 6.396 109.236 6.396C109.604 6.396 109.9 6.508 110.124 6.732C110.348 6.956 110.46 7.252 110.46 7.62V18.3C110.46 18.652 110.348 18.948 110.124 19.188C109.9 19.412 109.604 19.524 109.236 19.524ZM117.252 19.524C116.9 19.524 116.604 19.412 116.364 19.188C116.14 18.948 116.028 18.652 116.028 18.3V11.436C116.028 10.428 115.78 9.684 115.284 9.204C114.788 8.708 114.14 8.46 113.34 8.46C112.508 8.46 111.82 8.748 111.276 9.324C110.732 9.9 110.46 10.636 110.46 11.532H108.948C108.948 10.492 109.156 9.58 109.572 8.796C109.988 7.996 110.564 7.372 111.3 6.924C112.036 6.476 112.876 6.252 113.82 6.252C114.732 6.252 115.54 6.452 116.244 6.852C116.948 7.252 117.492 7.844 117.876 8.628C118.276 9.396 118.476 10.332 118.476 11.436V18.3C118.476 18.652 118.364 18.948 118.14 19.188C117.916 19.412 117.62 19.524 117.252 19.524ZM147.767 19.524C147.415 19.524 147.119 19.412 146.879 19.188C146.655 18.948 146.543 18.652 146.543 18.3V11.436C146.543 10.428 146.295 9.684 145.799 9.204C145.303 8.708 144.655 8.46 143.855 8.46C143.023 8.46 142.335 8.748 141.791 9.324C141.263 9.9 140.999 10.636 140.999 11.532H139.007C139.007 10.492 139.231 9.58 139.679 8.796C140.127 7.996 140.751 7.372 141.551 6.924C142.367 6.476 143.295 6.252 144.335 6.252C145.247 6.252 146.055 6.452 146.759 6.852C147.463 7.252 148.007 7.844 148.391 8.628C148.791 9.396 148.991 10.332 148.991 11.436V18.3C148.991 18.652 148.879 18.948 148.655 19.188C148.431 19.412 148.135 19.524 147.767 19.524ZM131.759 19.524C131.407 19.524 131.111 19.412 130.871 19.188C130.647 18.948 130.535 18.652 130.535 18.3V7.62C130.535 7.252 130.647 6.956 130.871 6.732C131.111 6.508 131.407 6.396 131.759 6.396C132.127 6.396 132.423 6.508 132.647 6.732C132.871 6.956 132.983 7.252 132.983 7.62V18.3C132.983 18.652 132.871 18.948 132.647 19.188C132.423 19.412 132.127 19.524 131.759 19.524ZM139.775 19.524C139.423 19.524 139.127 19.412 138.887 19.188C138.663 18.948 138.551 18.652 138.551 18.3V11.436C138.551 10.428 138.303 9.684 137.807 9.204C137.311 8.708 136.663 8.46 135.863 8.46C135.031 8.46 134.343 8.748 133.799 9.324C133.255 9.9 132.983 10.636 132.983 11.532H131.471C131.471 10.492 131.679 9.58 132.095 8.796C132.511 7.996 133.087 7.372 133.823 6.924C134.559 6.476 135.399 6.252 136.343 6.252C137.255 6.252 138.063 6.452 138.767 6.852C139.471 7.252 140.015 7.844 140.399 8.628C140.799 9.396 140.999 10.332 140.999 11.436V18.3C140.999 18.652 140.887 18.948 140.663 19.188C140.439 19.412 140.143 19.524 139.775 19.524ZM154.522 19.5C154.17 19.5 153.874 19.388 153.634 19.164C153.41 18.924 153.298 18.628 153.298 18.276V7.596C153.298 7.228 153.41 6.932 153.634 6.708C153.874 6.484 154.17 6.372 154.522 6.372C154.89 6.372 155.186 6.484 155.41 6.708C155.634 6.932 155.746 7.228 155.746 7.596V18.276C155.746 18.628 155.634 18.924 155.41 19.164C155.186 19.388 154.89 19.5 154.522 19.5ZM154.522 4.236C154.09 4.236 153.714 4.084 153.394 3.78C153.09 3.46 152.938 3.084 152.938 2.652C152.938 2.22 153.09 1.852 153.394 1.548C153.714 1.228 154.09 1.068 154.522 1.068C154.954 1.068 155.322 1.228 155.626 1.548C155.946 1.852 156.106 2.22 156.106 2.652C156.106 3.084 155.946 3.46 155.626 3.78C155.322 4.084 154.954 4.236 154.522 4.236ZM165.077 19.5C164.277 19.5 163.557 19.3 162.917 18.9C162.277 18.484 161.773 17.924 161.405 17.22C161.037 16.516 160.853 15.724 160.853 14.844V3.396C160.853 3.044 160.965 2.756 161.189 2.532C161.413 2.308 161.701 2.196 162.053 2.196C162.405 2.196 162.693 2.308 162.917 2.532C163.141 2.756 163.253 3.044 163.253 3.396V14.844C163.253 15.484 163.429 16.02 163.781 16.452C164.133 16.884 164.565 17.1 165.077 17.1H165.893C166.181 17.1 166.421 17.212 166.613 17.436C166.821 17.66 166.925 17.948 166.925 18.3C166.925 18.652 166.789 18.94 166.517 19.164C166.261 19.388 165.925 19.5 165.509 19.5H165.077ZM159.749 8.916C159.413 8.916 159.141 8.82 158.933 8.628C158.725 8.436 158.621 8.196 158.621 7.908C158.621 7.588 158.725 7.332 158.933 7.14C159.141 6.948 159.413 6.852 159.749 6.852H165.293C165.629 6.852 165.901 6.948 166.109 7.14C166.317 7.332 166.421 7.588 166.421 7.908C166.421 8.196 166.317 8.436 166.109 8.628C165.901 8.82 165.629 8.916 165.293 8.916H159.749Z" fill="black"></path>
  <path d="M3.62656 18.732L3.37032 19.1614L3.37549 19.1644L3.62656 18.732ZM1.27456 16.332L0.840441 16.5801L0.840441 16.5801L1.27456 16.332ZM0.386563 12.924L-0.113477 12.924L-0.113397 12.9303L0.386563 12.924ZM0.722563 1.092L0.381403 0.726472L0.375103 0.732352L0.369009 0.738446L0.722563 1.092ZM2.83456 8.46H2.33456V9.84103L3.21867 8.78009L2.83456 8.46ZM4.85056 6.876L5.0705 7.32505L5.07417 7.32321L4.85056 6.876ZM10.6106 7.164L10.3416 7.58556L10.3469 7.58882L10.6106 7.164ZM12.7946 9.54L12.3516 9.77205L12.3562 9.78042L12.7946 9.54ZM12.7226 16.332L12.2914 16.0788L12.2884 16.0839L12.7226 16.332ZM10.3706 18.732L10.6216 19.1644L10.6268 19.1614L10.3706 18.732ZM9.17056 16.86L9.42785 17.2888L9.43556 17.284L9.17056 16.86ZM10.6826 15.228L10.2459 14.9843L10.2417 14.9922L10.6826 15.228ZM10.6826 10.62L10.2439 10.8602L10.2484 10.8681L10.6826 10.62ZM9.17056 9.036L8.90552 9.46007L8.91332 9.46475L9.17056 9.036ZM4.80256 9.036L5.05982 9.46476L5.06287 9.4629L4.80256 9.036ZM3.29056 10.62L3.72911 10.8602L3.72911 10.8602L3.29056 10.62ZM3.29056 15.228L2.84967 15.4638L2.84967 15.4638L3.29056 15.228ZM4.80256 16.86L4.53756 17.284L4.54371 17.2878L4.54997 17.2915L4.80256 16.86ZM6.98656 19.096C5.81875 19.096 4.78674 18.8275 3.87763 18.2996L3.37549 19.1644C4.45039 19.7885 5.65837 20.096 6.98656 20.096V19.096ZM3.88279 18.3026C2.96509 17.755 2.2422 17.0176 1.70868 16.0839L0.840441 16.5801C1.45892 17.6624 2.30404 18.525 3.37033 19.1614L3.88279 18.3026ZM1.70868 16.0839C1.17847 15.1561 0.901546 14.1045 0.886523 12.9177L-0.113397 12.9303C-0.0964211 14.2715 0.218654 15.4919 0.840441 16.5801L1.70868 16.0839ZM0.886563 12.924V1.98H-0.113437V12.924H0.886563ZM0.886563 1.98C0.886563 1.72143 0.961093 1.56058 1.07612 1.44555L0.369009 0.738446C0.036032 1.07142 -0.113437 1.50257 -0.113437 1.98H0.886563ZM1.06372 1.45753C1.20407 1.32654 1.3752 1.256 1.61056 1.256V0.256C1.14193 0.256 0.721059 0.40946 0.381403 0.726472L1.06372 1.45753ZM1.61056 1.256C1.86913 1.256 2.02999 1.33053 2.14501 1.44555L2.85212 0.738446C2.51914 0.405469 2.08799 0.256 1.61056 0.256V1.256ZM2.14501 1.44555C2.26003 1.56058 2.33456 1.72143 2.33456 1.98H3.33456C3.33456 1.50257 3.18509 1.07142 2.85212 0.738446L2.14501 1.44555ZM2.33456 1.98V8.46H3.33456V1.98H2.33456ZM3.21867 8.78009C3.73372 8.16203 4.34982 7.67802 5.0705 7.32503L4.63063 6.42697C3.78331 6.84198 3.0554 7.41397 2.45045 8.13991L3.21867 8.78009ZM5.07417 7.32321C5.80089 6.95985 6.59577 6.776 7.46656 6.776V5.776C6.44936 5.776 5.50023 5.99215 4.62696 6.42879L5.07417 7.32321ZM7.46656 6.776C8.54538 6.776 9.49897 7.04796 10.3417 7.58553L10.8795 6.74247C9.86615 6.09604 8.72375 5.776 7.46656 5.776V6.776ZM10.3469 7.58882C11.1957 8.1157 11.8633 8.83967 12.3516 9.772L13.2375 9.308C12.6698 8.22432 11.8814 7.3643 10.8742 6.73918L10.3469 7.58882ZM12.3562 9.78042C12.8552 10.6904 13.1106 11.734 13.1106 12.924H14.1106C14.1106 11.586 13.8219 10.3736 13.233 9.29958L12.3562 9.78042ZM13.1106 12.924C13.1106 14.1065 12.8347 15.1538 12.2914 16.0788L13.1537 16.5852C13.7944 15.4942 14.1106 14.2695 14.1106 12.924H13.1106ZM12.2884 16.0839C11.7549 17.0176 11.032 17.755 10.1143 18.3026L10.6268 19.1614C11.6931 18.525 12.5382 17.6624 13.1567 16.5801L12.2884 16.0839ZM10.1195 18.2996C9.21136 18.8269 8.17161 19.096 6.98656 19.096V20.096C8.32952 20.096 9.54576 19.7891 10.6216 19.1644L10.1195 18.2996ZM6.98656 17.936C7.88445 17.936 8.70294 17.7237 9.42781 17.2887L8.91332 16.4313C8.35818 16.7643 7.72067 16.936 6.98656 16.936V17.936ZM9.43556 17.284C10.1522 16.8361 10.7157 16.2261 11.1235 15.4638L10.2417 14.9922C9.91341 15.6059 9.46893 16.0839 8.90556 16.436L9.43556 17.284ZM11.1192 15.4717C11.5479 14.7036 11.7586 13.8506 11.7586 12.924H10.7586C10.7586 13.6934 10.5852 14.3764 10.246 14.9843L11.1192 15.4717ZM11.7586 12.924C11.7586 11.9833 11.5487 11.128 11.1167 10.3719L10.2484 10.8681C10.5844 11.456 10.7586 12.1367 10.7586 12.924H11.7586ZM11.1211 10.3798C10.7117 9.63217 10.146 9.03817 9.42781 8.60725L8.91332 9.46475C9.47513 9.80183 9.91746 10.2638 10.244 10.8602L11.1211 10.3798ZM9.43556 8.612C8.70964 8.1583 7.88836 7.936 6.98656 7.936V8.936C7.71676 8.936 8.35148 9.1137 8.90556 9.46L9.43556 8.612ZM6.98656 7.936C6.09869 7.936 5.27999 8.15927 4.54226 8.6091L5.06287 9.4629C5.63714 9.11273 6.27443 8.936 6.98656 8.936V7.936ZM4.54532 8.60725C3.82713 9.03817 3.26146 9.63217 2.85201 10.3798L3.72911 10.8602C4.05567 10.2638 4.498 9.80183 5.05981 9.46475L4.54532 8.60725ZM2.85201 10.3798C2.43877 11.1345 2.23856 11.9869 2.23856 12.924H3.23856C3.23856 12.1331 3.40635 11.4495 3.72911 10.8602L2.85201 10.3798ZM2.23856 12.924C2.23856 13.847 2.43955 14.6971 2.84967 15.4638L3.73146 14.9922C3.40557 14.3829 3.23856 13.697 3.23856 12.924H2.23856ZM2.84967 15.4638C3.25741 16.2261 3.82093 16.8361 4.53756 17.284L5.06756 16.436C4.50419 16.0839 4.05972 15.6059 3.73146 14.9922L2.84967 15.4638ZM4.54997 17.2915C5.28667 17.7227 6.10263 17.936 6.98656 17.936V16.936C6.2705 16.936 5.63045 16.7653 5.05515 16.4285L4.54997 17.2915ZM18.4376 11.292H17.9376V11.792H18.4376V11.292ZM19.1336 8.724L18.7096 8.459L18.708 8.46145L19.1336 8.724ZM21.0536 6.9L20.8093 6.46375L20.8093 6.46375L21.0536 6.9ZM25.8296 6.708L25.5457 7.11961L25.5538 7.12517L25.562 7.13041L25.8296 6.708ZM26.3816 7.812L25.8976 7.68652L25.8949 7.69682L25.8927 7.70723L26.3816 7.812ZM26.0936 8.34L26.4228 8.7163L26.4257 8.7137L26.0936 8.34ZM25.6376 8.556L25.5481 8.06406L25.5481 8.06406L25.6376 8.556ZM25.0616 8.532L25.174 8.04463L25.1611 8.04201L25.0616 8.532ZM20.3576 9.468L20.004 9.1144L19.9981 9.12049L20.3576 9.468ZM19.6616 11.292V11.792H20.1616V11.292H19.6616ZM17.5736 19.212L17.22 19.5656L17.2271 19.5726L17.2344 19.5794L17.5736 19.212ZM17.5736 6.684L17.9271 7.03755L17.9271 7.03755L17.5736 6.684ZM19.3496 6.684L18.9822 7.02314L18.9957 7.03783L19.0104 7.0514L19.3496 6.684ZM19.3496 19.188L18.996 18.8344L18.9889 18.8415L18.9822 18.8489L19.3496 19.188ZM18.9376 11.292C18.9376 10.4164 19.148 9.65285 19.5591 8.98655L18.708 8.46145C18.1912 9.29915 17.9376 10.2476 17.9376 11.292H18.9376ZM19.5576 8.989C19.9924 8.2932 20.5703 7.74371 21.2979 7.33625L20.8093 6.46375C19.9369 6.95229 19.2347 7.6188 18.7096 8.459L19.5576 8.989ZM21.2979 7.33625C22.0197 6.93204 22.8149 6.728 23.6936 6.728V5.728C22.6522 5.728 21.6875 5.97195 20.8093 6.46375L21.2979 7.33625ZM23.6936 6.728C24.6159 6.728 25.2055 6.88502 25.5457 7.11961L26.1134 6.29639C25.5256 5.89098 24.6913 5.728 23.6936 5.728V6.728ZM25.562 7.13041C25.7532 7.2515 25.8417 7.3583 25.8803 7.43561C25.9136 7.50201 25.926 7.57679 25.8976 7.68652L26.8656 7.93748C26.9491 7.6152 26.9256 7.28999 26.7748 6.98839C26.6294 6.69769 26.3859 6.4685 26.0971 6.28559L25.562 7.13041ZM25.8927 7.70723C25.8626 7.84743 25.8117 7.92159 25.7614 7.96629L26.4257 8.7137C26.6635 8.50241 26.8045 8.22457 26.8705 7.91676L25.8927 7.70723ZM25.7643 7.96371C25.7079 8.01306 25.64 8.04736 25.5481 8.06406L25.727 9.04793C25.9871 9.00064 26.2232 8.89093 26.4228 8.71629L25.7643 7.96371ZM25.5481 8.06406C25.4507 8.08178 25.3283 8.08041 25.174 8.0448L24.9491 9.0192C25.2108 9.07958 25.4725 9.09422 25.727 9.04793L25.5481 8.06406ZM25.1611 8.04201C24.0859 7.82361 23.0944 7.80151 22.1961 7.99524L22.407 8.97276C23.1408 8.81449 23.9892 8.82439 24.962 9.02199L25.1611 8.04201ZM22.1961 7.99524C21.3078 8.18684 20.5661 8.55232 20.004 9.11445L20.7111 9.82155C21.109 9.42368 21.6633 9.13316 22.407 8.97276L22.1961 7.99524ZM19.9981 9.12049C19.4343 9.70366 19.1616 10.4408 19.1616 11.292H20.1616C20.1616 10.6712 20.3528 10.1923 20.7171 9.81551L19.9981 9.12049ZM19.6616 10.792H18.4376V11.792H19.6616V10.792ZM18.4616 19C18.1578 19 17.9996 18.9248 17.9127 18.8446L17.2344 19.5794C17.5635 19.8832 17.9973 20 18.4616 20V19ZM17.9271 18.8584C17.8426 18.7739 17.7616 18.6163 17.7616 18.3H16.7616C16.7616 18.7837 16.8885 19.2341 17.22 19.5656L17.9271 18.8584ZM17.7616 18.3V7.572H16.7616V18.3H17.7616ZM17.7616 7.572C17.7616 7.27845 17.839 7.12568 17.9271 7.03755L17.22 6.33045C16.8921 6.65832 16.7616 7.09755 16.7616 7.572H17.7616ZM17.9271 7.03755C18.0152 6.94943 18.168 6.872 18.4616 6.872V5.872C17.9871 5.872 17.5479 6.00257 17.22 6.33045L17.9271 7.03755ZM18.4616 6.872C18.7811 6.872 18.9186 6.95423 18.9822 7.02314L19.717 6.34486C19.3966 5.99777 18.9421 5.872 18.4616 5.872V6.872ZM19.0104 7.0514C19.0793 7.11501 19.1616 7.25251 19.1616 7.572H20.1616C20.1616 7.09149 20.0358 6.63699 19.6887 6.3166L19.0104 7.0514ZM19.1616 7.572V18.3H20.1616V7.572H19.1616ZM19.1616 18.3C19.1616 18.5935 19.0841 18.7463 18.996 18.8344L19.7031 19.5416C20.031 19.2137 20.1616 18.7745 20.1616 18.3H19.1616ZM18.9822 18.8489C18.9186 18.9178 18.7811 19 18.4616 19V20C18.9421 20 19.3966 19.8742 19.717 19.5271L18.9822 18.8489ZM30.3005 18.732L30.0316 19.1536L30.0368 19.1568L30.3005 18.732ZM28.0925 16.356L27.6495 16.588L27.6541 16.5964L28.0925 16.356ZM28.1645 9.54L27.7333 9.28677L27.7304 9.29193L28.1645 9.54ZM30.5405 7.164L30.7916 7.5964L30.7937 7.59514L30.5405 7.164ZM37.2845 7.164L37.0283 7.59339L37.0334 7.59639L37.2845 7.164ZM39.6365 9.54L39.2023 9.78809L39.2054 9.79321L39.6365 9.54ZM40.5245 12.948V13.448H41.0245V12.948H40.5245ZM39.5885 12.948V12.448H39.0885V12.948H39.5885ZM38.7725 16.356L38.3325 16.1185L38.3311 16.1211L38.7725 16.356ZM36.5885 18.732L36.8522 19.1569L36.8574 19.1535L36.5885 18.732ZM36.1085 16.86L36.3658 17.2888L36.3735 17.284L36.1085 16.86ZM37.6205 15.252L38.0591 15.4922L38.0614 15.4878L37.6205 15.252ZM37.6205 10.644L37.1796 10.8798L37.182 10.8842L37.6205 10.644ZM36.1085 9.036L35.8435 9.46007L35.8513 9.46475L36.1085 9.036ZM31.7405 9.036L31.9978 9.46476L32.0008 9.4629L31.7405 9.036ZM30.2045 10.644L29.7679 10.4003L29.766 10.4038L30.2045 10.644ZM30.2045 15.252L29.7634 15.4879L29.7704 15.5001L30.2045 15.252ZM31.7405 16.86L31.4755 17.284L31.4817 17.2878L31.4879 17.2915L31.7405 16.86ZM38.4125 19.188L38.047 19.5292L38.0587 19.5418L38.0713 19.5535L38.4125 19.188ZM38.0765 14.628L37.5843 14.5398L37.5765 14.5835V14.628H38.0765ZM38.5325 12.084L38.7315 11.6253L38.1518 11.3739L38.0403 11.9958L38.5325 12.084ZM40.5245 12.948H41.0245V12.6199L40.7235 12.4893L40.5245 12.948ZM40.1645 19.188L40.5181 19.5416L40.5181 19.5416L40.1645 19.188ZM33.4445 19.096C32.3629 19.096 31.4075 18.8306 30.5642 18.3072L30.0368 19.1568C31.0495 19.7854 32.1901 20.096 33.4445 20.096V19.096ZM30.5694 18.3105C29.7142 17.7649 29.0357 17.0361 28.5309 16.1156L27.6541 16.5964C28.2373 17.6599 29.0308 18.5151 30.0316 19.1535L30.5694 18.3105ZM28.5354 16.124C28.0489 15.1952 27.8005 14.1403 27.8005 12.948H26.8005C26.8005 14.2837 27.0801 15.5008 27.6496 16.588L28.5354 16.124ZM27.8005 12.948C27.8005 11.7631 28.0696 10.7139 28.5986 9.78807L27.7304 9.29193C27.1074 10.3821 26.8005 11.6049 26.8005 12.948H27.8005ZM28.5956 9.79321C29.1449 8.85796 29.8755 8.12831 30.7916 7.59639L30.2894 6.73161C29.2215 7.35169 28.3681 8.20604 27.7334 9.28679L28.5956 9.79321ZM30.7937 7.59514C31.7197 7.05129 32.7593 6.776 33.9245 6.776V5.776C32.5937 5.776 31.3773 6.09271 30.2873 6.73286L30.7937 7.59514ZM33.9245 6.776C35.0898 6.776 36.1199 7.05129 37.0283 7.59336L37.5407 6.73464C36.4651 6.09271 35.2552 5.776 33.9245 5.776V6.776ZM37.0334 7.59639C37.9483 8.1276 38.6695 8.85559 39.2024 9.78807L40.0706 9.29193C39.4515 8.20841 38.6047 7.3524 37.5356 6.73161L37.0334 7.59639ZM39.2054 9.79321C39.7486 10.7182 40.0245 11.7655 40.0245 12.948H41.0245C41.0245 11.6025 40.7084 10.3778 40.0676 9.28679L39.2054 9.79321ZM40.5245 12.448H39.5885V13.448H40.5245V12.448ZM39.0885 12.948C39.0885 14.1379 38.8332 15.1908 38.3325 16.1185L39.2125 16.5935C39.7998 15.5052 40.0885 14.2861 40.0885 12.948H39.0885ZM38.3311 16.1211C37.8427 17.0387 37.1734 17.7658 36.3196 18.3105L36.8574 19.1535C37.8596 18.5142 38.6463 17.6573 39.2139 16.5909L38.3311 16.1211ZM36.3248 18.3072C35.4815 18.8306 34.5261 19.096 33.4445 19.096V20.096C34.6989 20.096 35.8395 19.7854 36.8522 19.1568L36.3248 18.3072ZM33.9245 17.936C34.8224 17.936 35.6409 17.7237 36.3657 17.2887L35.8513 16.4313C35.2961 16.7643 34.6586 16.936 33.9245 16.936V17.936ZM36.3735 17.284C37.0873 16.8379 37.6506 16.2381 38.059 15.4922L37.182 15.0118C36.8544 15.6099 36.4097 16.0821 35.8435 16.436L36.3735 17.284ZM38.0614 15.4878C38.4715 14.7211 38.6725 13.871 38.6725 12.948H37.6725C37.6725 13.721 37.5055 14.4069 37.1796 15.0162L38.0614 15.4878ZM38.6725 12.948C38.6725 12.0109 38.4723 11.1585 38.059 10.4038L37.182 10.8842C37.5047 11.4735 37.6725 12.1571 37.6725 12.948H38.6725ZM38.0614 10.4082C37.6528 9.64423 37.0869 9.03993 36.3657 8.60725L35.8513 9.46475C36.4101 9.80007 36.8522 10.2678 37.1796 10.8798L38.0614 10.4082ZM36.3735 8.612C35.6476 8.1583 34.8263 7.936 33.9245 7.936V8.936C34.6547 8.936 35.2894 9.1137 35.8435 9.46L36.3735 8.612ZM33.9245 7.936C33.0366 7.936 32.2179 8.15927 31.4802 8.6091L32.0008 9.4629C32.5751 9.11273 33.2124 8.936 33.9245 8.936V7.936ZM31.4833 8.60725C30.7641 9.03874 30.192 9.64043 29.7679 10.4003L30.6411 10.8877C30.985 10.2716 31.4369 9.80126 31.9977 9.46475L31.4833 8.60725ZM29.766 10.4038C29.3527 11.1585 29.1525 12.0109 29.1525 12.948H30.1525C30.1525 12.1571 30.3203 11.4735 30.643 10.8842L29.766 10.4038ZM29.1525 12.948C29.1525 13.871 29.3535 14.7211 29.7636 15.4878L30.6454 15.0162C30.3195 14.4069 30.1525 13.721 30.1525 12.948H29.1525ZM29.7704 15.5001C30.1943 16.2419 30.7636 16.8391 31.4755 17.284L32.0055 16.436C31.4374 16.0809 30.9827 15.6061 30.6386 15.0039L29.7704 15.5001ZM31.4879 17.2915C32.2246 17.7227 33.0406 17.936 33.9245 17.936V16.936C33.2084 16.936 32.5684 16.7653 31.9931 16.4285L31.4879 17.2915ZM39.3005 19.024C39.0651 19.024 38.894 18.9535 38.7537 18.8225L38.0713 19.5535C38.411 19.8705 38.8319 20.024 39.3005 20.024V19.024ZM38.778 18.8468C38.647 18.7065 38.5765 18.5354 38.5765 18.3H37.5765C37.5765 18.7686 37.73 19.1895 38.047 19.5292L38.778 18.8468ZM38.5765 18.3V14.628H37.5765V18.3H38.5765ZM38.5687 14.7162L39.0247 12.1722L38.0403 11.9958L37.5843 14.5398L38.5687 14.7162ZM38.3335 12.5427L40.3255 13.4067L40.7235 12.4893L38.7315 11.6253L38.3335 12.5427ZM40.0245 12.948V18.3H41.0245V12.948H40.0245ZM40.0245 18.3C40.0245 18.5249 39.9534 18.692 39.8109 18.8344L40.5181 19.5416C40.8556 19.204 41.0245 18.7791 41.0245 18.3H40.0245ZM39.8109 18.8344C39.6915 18.9538 39.536 19.024 39.3005 19.024V20.024C39.769 20.024 40.1895 19.8702 40.5181 19.5416L39.8109 18.8344ZM54.3678 19.188L54.0023 19.5292L54.014 19.5418L54.0267 19.5535L54.3678 19.188ZM53.5278 10.164L53.0959 10.4159L53.0959 10.4159L53.5278 10.164ZM52.1598 8.892L51.9311 9.33664L51.9387 9.34051L51.9463 9.34412L52.1598 8.892ZM48.3918 8.868L48.1682 8.42079L48.1682 8.42079L48.3918 8.868ZM47.0958 9.972L47.5027 10.2627L47.5074 10.2559L47.0958 9.972ZM46.6158 11.532V12.032H47.1158V11.532H46.6158ZM45.1038 11.532H44.6038V12.032H45.1038V11.532ZM45.8238 8.844L45.3989 8.58053L45.3974 8.58292L45.8238 8.844ZM47.8398 6.948L48.0798 7.38663L48.0798 7.38663L47.8398 6.948ZM53.6478 6.972L53.4049 7.40918L53.4146 7.41428L53.6478 6.972ZM55.7118 9.036L55.2725 9.27491L55.2758 9.28077L55.7118 9.036ZM56.1198 19.188L55.7663 18.8344L55.7663 18.8344L56.1198 19.188ZM44.5038 19.188L44.1383 19.5292L44.15 19.5418L44.1627 19.5535L44.5038 19.188ZM44.5038 6.708L44.1627 6.34247L44.1564 6.34835L44.1503 6.35445L44.5038 6.708ZM46.2798 19.188L46.6334 19.5416L46.6395 19.5355L46.6453 19.5292L46.2798 19.188ZM55.2558 19.024C55.0204 19.024 54.8493 18.9535 54.709 18.8225L54.0267 19.5535C54.3663 19.8705 54.7872 20.024 55.2558 20.024V19.024ZM54.7333 18.8468C54.6024 18.7065 54.5318 18.5354 54.5318 18.3H53.5318C53.5318 18.7686 53.6853 19.1895 54.0023 19.5292L54.7333 18.8468ZM54.5318 18.3V12.396H53.5318V18.3H54.5318ZM54.5318 12.396C54.5318 11.4267 54.3538 10.5876 53.9597 9.91206L53.0959 10.4159C53.3739 10.8924 53.5318 11.5413 53.5318 12.396H54.5318ZM53.9597 9.91206C53.5753 9.25313 53.0451 8.7571 52.3733 8.43987L51.9463 9.34412C52.4265 9.5709 52.8083 9.92286 53.0959 10.4159L53.9597 9.91206ZM52.3885 8.44736C51.7467 8.1173 51.0179 7.96 50.2158 7.96V8.96C50.8857 8.96 51.4529 9.0907 51.9311 9.33664L52.3885 8.44736ZM50.2158 7.96C49.4744 7.96 48.7887 8.11056 48.1682 8.42079L48.6154 9.31521C49.083 9.08144 49.6132 8.96 50.2158 8.96V7.96ZM48.1682 8.42079C47.5549 8.72744 47.0558 9.14926 46.6842 9.68813L47.5074 10.2559C47.7758 9.86674 48.1407 9.55256 48.6154 9.31521L48.1682 8.42079ZM46.6889 9.68138C46.3037 10.2207 46.1158 10.8441 46.1158 11.532H47.1158C47.1158 11.0359 47.2479 10.6193 47.5027 10.2626L46.6889 9.68138ZM46.6158 11.032H45.1038V12.032H46.6158V11.032ZM45.6038 11.532C45.6038 10.6069 45.8229 9.80301 46.2502 9.10508L45.3974 8.58292C44.8647 9.45299 44.6038 10.441 44.6038 11.532H45.6038ZM46.2488 9.10747C46.698 8.38288 47.3054 7.81036 48.0798 7.38663L47.5998 6.50937C46.6782 7.01364 45.9416 7.70512 45.3989 8.58053L46.2488 9.10747ZM48.0798 7.38663C48.8476 6.96654 49.7158 6.752 50.6958 6.752V5.752C49.5639 5.752 48.5281 6.00145 47.5998 6.50937L48.0798 7.38663ZM50.6958 6.752C51.725 6.752 52.6237 6.975 53.405 7.40908L53.8906 6.53492C52.944 6.009 51.8747 5.752 50.6958 5.752V6.752ZM53.4146 7.41428C54.2034 7.83022 54.8215 8.44554 55.2726 9.27489L56.1511 8.79711C55.6101 7.80246 54.8522 7.04178 53.881 6.52972L53.4146 7.41428ZM55.2758 9.28077C55.736 10.1005 55.9798 11.1311 55.9798 12.396H56.9798C56.9798 11.0049 56.7116 9.79554 56.1478 8.79123L55.2758 9.28077ZM55.9798 12.396V18.3H56.9798V12.396H55.9798ZM55.9798 18.3C55.9798 18.5249 55.9087 18.692 55.7663 18.8344L56.4734 19.5416C56.8109 19.204 56.9798 18.7791 56.9798 18.3H55.9798ZM55.7663 18.8344C55.6469 18.9538 55.4914 19.024 55.2558 19.024V20.024C55.7243 20.024 56.1448 19.8702 56.4734 19.5416L55.7663 18.8344ZM45.3918 19.024C45.1564 19.024 44.9853 18.9535 44.845 18.8225L44.1627 19.5535C44.5023 19.8705 44.9232 20.024 45.3918 20.024V19.024ZM44.8693 18.8468C44.7384 18.7065 44.6678 18.5354 44.6678 18.3H43.6678C43.6678 18.7686 43.8213 19.1895 44.1383 19.5292L44.8693 18.8468ZM44.6678 18.3V7.596H43.6678V18.3H44.6678ZM44.6678 7.596C44.6678 7.33743 44.7423 7.17657 44.8574 7.06155L44.1503 6.35445C43.8173 6.68742 43.6678 7.11857 43.6678 7.596H44.6678ZM44.845 7.07353C44.9853 6.94254 45.1564 6.872 45.3918 6.872V5.872C44.9232 5.872 44.5023 6.02546 44.1627 6.34247L44.845 7.07353ZM45.3918 6.872C45.6504 6.872 45.8112 6.94653 45.9263 7.06155L46.6334 6.35445C46.3004 6.02147 45.8692 5.872 45.3918 5.872V6.872ZM45.9263 7.06155C46.0413 7.17657 46.1158 7.33743 46.1158 7.596H47.1158C47.1158 7.11857 46.9663 6.68742 46.6334 6.35445L45.9263 7.06155ZM46.1158 7.596V18.3H47.1158V7.596H46.1158ZM46.1158 18.3C46.1158 18.5354 46.0453 18.7065 45.9143 18.8468L46.6453 19.5292C46.9624 19.1895 47.1158 18.7686 47.1158 18.3H46.1158ZM45.9263 18.8344C45.8112 18.9495 45.6504 19.024 45.3918 19.024V20.024C45.8692 20.024 46.3004 19.8745 46.6334 19.5416L45.9263 18.8344ZM63.0952 18.732L62.8389 19.1614L62.8471 19.1661L63.0952 18.732ZM60.7192 16.332L60.285 16.5801L60.288 16.5852L60.7192 16.332ZM60.6472 9.54L60.2072 9.30253L60.2058 9.30507L60.6472 9.54ZM62.8552 7.164L63.1189 7.58885L63.1241 7.58553L62.8552 7.164ZM68.6152 6.876L68.3916 7.32327L68.3988 7.32676L68.6152 6.876ZM70.6312 8.46L70.2426 8.7746L71.1312 9.87231V8.46H70.6312ZM70.9672 1.092L70.626 0.726472L70.6197 0.732352L70.6136 0.738446L70.9672 1.092ZM72.1912 16.332L71.76 16.0788L71.7571 16.0839L72.1912 16.332ZM69.8392 18.732L70.0903 19.1644L70.0954 19.1614L69.8392 18.732ZM68.6632 16.86L68.9205 17.2888L68.9282 17.284L68.6632 16.86ZM70.1752 15.228L69.7343 14.9922L69.7343 14.9922L70.1752 15.228ZM70.1752 10.62L69.7366 10.8602L69.7366 10.8602L70.1752 10.62ZM68.6632 9.036L68.3981 9.46007L68.4059 9.46475L68.6632 9.036ZM64.2952 9.036L64.5524 9.46476L64.5555 9.4629L64.2952 9.036ZM62.7592 10.62L62.325 10.3719L62.3206 10.3798L62.7592 10.62ZM62.7592 15.228L62.3182 15.4639L62.3226 15.4717L62.7592 15.228ZM64.2952 16.86L64.0302 17.284L64.0363 17.2878L64.0426 17.2915L64.2952 16.86ZM66.4792 19.096C65.3115 19.096 64.2701 18.8275 63.3433 18.2979L62.8471 19.1661C63.9363 19.7885 65.1509 20.096 66.4792 20.096V19.096ZM63.3514 18.3026C62.4325 17.7543 61.7003 17.0152 61.1503 16.0788L60.288 16.5852C60.9221 17.6648 61.7739 18.5257 62.839 19.1614L63.3514 18.3026ZM61.1533 16.0839C60.6243 15.1581 60.3552 14.1089 60.3552 12.924H59.3552C59.3552 14.2671 59.6621 15.4899 60.2851 16.5801L61.1533 16.0839ZM60.3552 12.924C60.3552 11.7316 60.6036 10.686 61.0886 9.77492L60.2058 9.30507C59.6347 10.378 59.3552 11.5884 59.3552 12.924H60.3552ZM61.0872 9.77747C61.5919 8.84234 62.2686 8.11654 63.1189 7.58882L62.5915 6.73918C61.5857 7.36346 60.7905 8.22166 60.2072 9.30253L61.0872 9.77747ZM63.1241 7.58553C63.9668 7.04796 64.9204 6.776 65.9992 6.776V5.776C64.742 5.776 63.5996 6.09604 62.5863 6.74247L63.1241 7.58553ZM65.9992 6.776C66.87 6.776 67.6649 6.95985 68.3916 7.32321L68.8388 6.42879C67.9655 5.99215 67.0164 5.776 65.9992 5.776V6.776ZM68.3988 7.32676C69.1338 7.67957 69.7464 8.16173 70.2426 8.7746L71.0198 8.1454C70.4279 7.41426 69.6965 6.84043 68.8316 6.42524L68.3988 7.32676ZM71.1312 8.46V1.98H70.1312V8.46H71.1312ZM71.1312 1.98C71.1312 1.72143 71.2057 1.56058 71.3207 1.44555L70.6136 0.738446C70.2807 1.07142 70.1312 1.50257 70.1312 1.98H71.1312ZM71.3083 1.45753C71.4487 1.32654 71.6198 1.256 71.8552 1.256V0.256C71.3866 0.256 70.9657 0.40946 70.626 0.726472L71.3083 1.45753ZM71.8552 1.256C72.1138 1.256 72.2746 1.33053 72.3896 1.44555L73.0967 0.738446C72.7638 0.405469 72.3326 0.256 71.8552 0.256V1.256ZM72.3896 1.44555C72.5047 1.56058 72.5792 1.72143 72.5792 1.98H73.5792C73.5792 1.50257 73.4297 1.07142 73.0967 0.738446L72.3896 1.44555ZM72.5792 1.98V12.924H73.5792V1.98H72.5792ZM72.5792 12.924C72.5792 14.1065 72.3033 15.1538 71.76 16.0788L72.6223 16.5852C73.2631 15.4942 73.5792 14.2695 73.5792 12.924H72.5792ZM71.7571 16.0839C71.2235 17.0176 70.5007 17.755 69.583 18.3026L70.0954 19.1614C71.1617 18.525 72.0068 17.6624 72.6253 16.5801L71.7571 16.0839ZM69.5881 18.2996C68.679 18.8275 67.647 19.096 66.4792 19.096V20.096C67.8074 20.096 69.0154 19.7885 70.0903 19.1644L69.5881 18.2996ZM66.4792 17.936C67.3771 17.936 68.1956 17.7237 68.9204 17.2887L68.4059 16.4313C67.8508 16.7643 67.2133 16.936 66.4792 16.936V17.936ZM68.9282 17.284C69.6448 16.8361 70.2083 16.2261 70.6161 15.4638L69.7343 14.9922C69.406 15.6059 68.9616 16.0839 68.3982 16.436L68.9282 17.284ZM70.6161 15.4638C71.0262 14.6971 71.2272 13.847 71.2272 12.924H70.2272C70.2272 13.697 70.0602 14.3829 69.7343 14.9922L70.6161 15.4638ZM71.2272 12.924C71.2272 11.9869 71.027 11.1345 70.6137 10.3798L69.7366 10.8602C70.0594 11.4495 70.2272 12.1331 70.2272 12.924H71.2272ZM70.6137 10.3798C70.2043 9.63217 69.6386 9.03817 68.9204 8.60725L68.4059 9.46475C68.9678 9.80183 69.4101 10.2638 69.7366 10.8602L70.6137 10.3798ZM68.9282 8.612C68.2023 8.1583 67.381 7.936 66.4792 7.936V8.936C67.2094 8.936 67.8441 9.1137 68.3982 9.46L68.9282 8.612ZM66.4792 7.936C65.5913 7.936 64.7726 8.15927 64.0349 8.6091L64.5555 9.4629C65.1298 9.11273 65.7671 8.936 66.4792 8.936V7.936ZM64.0379 8.60725C63.3217 9.037 62.7499 9.62841 62.3251 10.3719L63.1933 10.8681C63.5364 10.2676 63.9887 9.803 64.5524 9.46475L64.0379 8.60725ZM62.3206 10.3798C61.9074 11.1345 61.7072 11.9869 61.7072 12.924H62.7072C62.7072 12.1331 62.875 11.4495 63.1977 10.8602L62.3206 10.3798ZM61.7072 12.924C61.7072 13.847 61.9082 14.6971 62.3183 15.4638L63.2001 14.9922C62.8742 14.3829 62.7072 13.697 62.7072 12.924H61.7072ZM62.3226 15.4717C62.7458 16.2299 63.3155 16.8373 64.0302 17.284L64.5602 16.436C63.9949 16.0827 63.5406 15.6021 63.1958 14.9843L62.3226 15.4717ZM64.0426 17.2915C64.7793 17.7227 65.5953 17.936 66.4792 17.936V16.936C65.7631 16.936 65.1231 16.7653 64.5478 16.4285L64.0426 17.2915ZM79.9222 18.732L79.6659 19.1614L79.6741 19.1661L79.9222 18.732ZM77.5702 16.356L77.133 16.5989L77.1378 16.6071L77.5702 16.356ZM77.5702 9.492L77.1331 9.24918L77.1331 9.24918L77.5702 9.492ZM79.8742 7.14L80.123 7.57371L80.1283 7.5706L79.8742 7.14ZM85.8262 6.828L85.6137 7.28068L85.6214 7.28413L85.8262 6.828ZM87.9382 8.436L87.5603 8.76347L87.5619 8.76525L87.9382 8.436ZM88.1782 9.228L87.6915 9.11348L87.6915 9.11348L88.1782 9.228ZM87.6502 9.948L87.9408 10.3549L87.9429 10.3533L87.6502 9.948ZM86.9062 10.116L86.7917 10.6027L86.8054 10.6059L86.8193 10.6084L86.9062 10.116ZM86.1622 9.684L85.7983 10.0269L85.8034 10.0323L85.8086 10.0376L86.1622 9.684ZM81.0742 9.012L81.3282 9.44276L81.3362 9.43783L81.0742 9.012ZM79.6102 10.572L80.0531 10.804L80.0531 10.804L79.6102 10.572ZM79.6102 15.252L79.1672 15.484L79.1716 15.4922L79.6102 15.252ZM81.1222 16.86L80.8571 17.2841L80.8649 17.2887L81.1222 16.86ZM84.8182 17.244L84.9653 17.722L84.9763 17.7183L84.8182 17.244ZM85.9942 16.596L85.6789 16.2079L85.6776 16.209L85.9942 16.596ZM86.7862 16.26L86.8155 16.7591L86.8301 16.7583L86.8446 16.7566L86.7862 16.26ZM87.5062 16.476L87.1832 16.8577L87.1883 16.862L87.5062 16.476ZM87.9622 17.244L87.4652 17.2992L87.4656 17.3024L87.9622 17.244ZM87.6742 17.988L88.0148 18.354L88.0214 18.3479L88.0277 18.3416L87.6742 17.988ZM83.3542 19.096C82.1521 19.096 81.0951 18.8264 80.1703 18.2979L79.6741 19.1661C80.7652 19.7896 81.9963 20.096 83.3542 20.096V19.096ZM80.1784 18.3026C79.2588 17.7538 78.5356 17.023 78.0026 16.1049L77.1378 16.6071C77.7567 17.673 78.6016 18.5262 79.666 19.1614L80.1784 18.3026ZM78.0073 16.1132C77.4924 15.1864 77.2302 14.1354 77.2302 12.948H76.2302C76.2302 14.2886 76.528 15.5096 77.1331 16.5988L78.0073 16.1132ZM77.2302 12.948C77.2302 11.7263 77.4934 10.6597 78.0073 9.73482L77.1331 9.24918C76.5269 10.3403 76.2302 11.5777 76.2302 12.948H77.2302ZM78.0073 9.73482C78.5242 8.80432 79.228 8.08722 80.123 7.57368L79.6254 6.70632C78.5684 7.31278 77.7362 8.16368 77.1331 9.24918L78.0073 9.73482ZM80.1283 7.5706C81.0187 7.04512 82.049 6.776 83.2342 6.776V5.776C81.8914 5.776 80.6817 6.08288 79.6201 6.7094L80.1283 7.5706ZM83.2342 6.776C84.1114 6.776 84.902 6.94655 85.6137 7.28062L86.0386 6.37538C85.1824 5.97345 84.2449 5.776 83.2342 5.776V6.776ZM85.6214 7.28413C86.3321 7.60324 86.9788 8.09241 87.5603 8.76346L88.316 8.10853C87.6496 7.33959 86.8882 6.75676 86.031 6.37187L85.6214 7.28413ZM87.5619 8.76525C87.7057 8.92961 87.7103 9.03349 87.6915 9.11348L88.6649 9.34252C88.7741 8.87851 88.6187 8.45439 88.3145 8.10675L87.5619 8.76525ZM87.6915 9.11348C87.6619 9.23936 87.5751 9.38544 87.3574 9.54266L87.9429 10.3533C88.3013 10.0946 88.5665 9.76064 88.6649 9.34252L87.6915 9.11348ZM87.3596 9.54113C87.2452 9.6228 87.1334 9.64836 86.9931 9.62361L86.8193 10.6084C87.223 10.6796 87.6071 10.5932 87.9408 10.3549L87.3596 9.54113ZM87.0207 9.62929C86.8509 9.58933 86.683 9.49771 86.5157 9.33045L85.8086 10.0376C86.0894 10.3183 86.4175 10.5147 86.7917 10.6027L87.0207 9.62929ZM86.5261 9.3411C85.6453 8.4064 84.5366 7.936 83.2342 7.936V8.936C84.2678 8.936 85.1111 9.2976 85.7983 10.0269L86.5261 9.3411ZM83.2342 7.936C82.3365 7.936 81.5237 8.1483 80.8121 8.58617L81.3362 9.43783C81.8727 9.1077 82.4999 8.936 83.2342 8.936V7.936ZM80.8202 8.58132C80.1121 8.99893 79.5604 9.58954 79.1673 10.34L80.0531 10.804C80.364 10.2105 80.7883 9.76107 81.3282 9.44268L80.8202 8.58132ZM79.1673 10.34C78.7709 11.0967 78.5822 11.9714 78.5822 12.948H79.5822C79.5822 12.1006 79.7455 11.3913 80.0531 10.804L79.1673 10.34ZM78.5822 12.948C78.5822 13.8815 78.7728 14.731 79.1673 15.484L80.0531 15.02C79.7435 14.429 79.5822 13.7425 79.5822 12.948H78.5822ZM79.1716 15.4922C79.5801 16.2381 80.1434 16.8379 80.8572 17.284L81.3872 16.436C80.821 16.0821 80.3762 15.6099 80.0487 15.0118L79.1716 15.4922ZM80.8649 17.2887C81.5928 17.7255 82.4282 17.936 83.3542 17.936V16.936C82.5842 16.936 81.9316 16.7625 81.3794 16.4313L80.8649 17.2887ZM83.3542 17.936C83.9505 17.936 84.4902 17.868 84.9652 17.7219L84.6711 16.7661C84.3142 16.876 83.8778 16.936 83.3542 16.936V17.936ZM84.9763 17.7183C85.4659 17.5551 85.9117 17.3095 86.3108 16.983L85.6776 16.209C85.3727 16.4585 85.0344 16.6449 84.6601 16.7697L84.9763 17.7183ZM86.3095 16.9841C86.5016 16.8279 86.6686 16.7678 86.8155 16.7591L86.7568 15.7609C86.3598 15.7842 85.9987 15.9481 85.6789 16.2079L86.3095 16.9841ZM86.8446 16.7566C86.9799 16.7407 87.0816 16.7717 87.1832 16.8577L87.8292 16.0943C87.5148 15.8283 87.1365 15.7153 86.7278 15.7634L86.8446 16.7566ZM87.1883 16.862C87.3829 17.0222 87.4506 17.1675 87.4652 17.2992L88.4591 17.1888C88.4098 16.7445 88.1735 16.3778 87.824 16.09L87.1883 16.862ZM87.4656 17.3024C87.4768 17.3975 87.4555 17.4996 87.3206 17.6344L88.0277 18.3416C88.3408 18.0284 88.5116 17.6345 88.4588 17.1856L87.4656 17.3024ZM87.3336 17.622C86.2835 18.5991 84.9693 19.096 83.3542 19.096V20.096C85.1951 20.096 86.7609 19.5209 88.0148 18.354L87.3336 17.622ZM94.3363 18.756L94.0852 19.1884L94.0905 19.1914L94.3363 18.756ZM91.9843 16.404L91.5471 16.6469L91.5519 16.6551L91.9843 16.404ZM91.9843 9.492L91.5501 9.24393L91.5488 9.2462L91.9843 9.492ZM94.3363 7.14L94.5821 7.57544L94.5873 7.57239L94.3363 7.14ZM101.176 7.14L100.925 7.57243L100.93 7.57541L101.176 7.14ZM103.504 9.492L103.067 9.73486L103.072 9.74307L103.504 9.492ZM103.528 16.404L103.964 16.6498L103.965 16.6468L103.528 16.404ZM101.2 18.756L101.446 19.1914L101.451 19.1884L101.2 18.756ZM99.9763 16.86L99.719 16.4313L99.719 16.4313L99.9763 16.86ZM101.464 15.276L101.026 15.0358L101.021 15.044L101.464 15.276ZM101.464 10.62L101.019 10.8478L101.026 10.8602L101.464 10.62ZM99.9763 9.012L99.719 9.44075L99.719 9.44075L99.9763 9.012ZM95.5603 9.012L95.8175 9.44075L95.8175 9.44075L95.5603 9.012ZM94.0483 10.62L94.4868 10.8602L94.4891 10.8558L94.0483 10.62ZM94.0483 15.276L94.4868 15.0358L94.4868 15.0358L94.0483 15.276ZM95.5603 16.86L95.303 17.2887L95.303 17.2887L95.5603 16.86ZM97.7683 19.096C96.5463 19.096 95.4892 18.8327 94.582 18.3206L94.0905 19.1914C95.1673 19.7993 96.3982 20.096 97.7683 20.096V19.096ZM94.5873 18.3236C93.6705 17.7913 92.949 17.0698 92.4166 16.1529L91.5519 16.6551C92.1715 17.7222 93.018 18.5687 94.0852 19.1884L94.5873 18.3236ZM92.4213 16.1612C91.9075 15.2363 91.6443 14.1697 91.6443 12.948H90.6443C90.6443 14.3183 90.941 15.5557 91.5472 16.6468L92.4213 16.1612ZM91.6443 12.948C91.6443 11.7089 91.9081 10.6441 92.4197 9.7378L91.5488 9.2462C90.9404 10.3239 90.6443 11.5631 90.6443 12.948H91.6443ZM92.4184 9.74007C92.9505 8.80878 93.6701 8.0902 94.582 7.57541L94.0905 6.70459C93.0184 7.3098 92.17 8.15922 91.5501 9.24393L92.4184 9.74007ZM94.5873 7.57239C95.4936 7.04619 96.5488 6.776 97.7683 6.776V5.776C96.3957 5.776 95.1629 6.08181 94.0852 6.7076L94.5873 7.57239ZM97.7683 6.776C98.9705 6.776 100.018 7.04565 100.925 7.57239L101.427 6.7076C100.35 6.08235 99.126 5.776 97.7683 5.776V6.776ZM100.93 7.57541C101.841 8.0895 102.551 8.80638 103.067 9.73482L103.941 9.24918C103.337 8.16161 102.495 7.3105 101.422 6.70459L100.93 7.57541ZM103.072 9.74307C103.598 10.6484 103.868 11.7113 103.868 12.948H104.868C104.868 11.5607 104.563 10.3196 103.937 9.24093L103.072 9.74307ZM103.868 12.948C103.868 14.1697 103.605 15.2363 103.091 16.1612L103.965 16.6468C104.572 15.5557 104.868 14.3183 104.868 12.948H103.868ZM103.093 16.1582C102.577 17.0721 101.865 17.792 100.949 18.3236L101.451 19.1884C102.52 18.568 103.36 17.7199 103.964 16.6498L103.093 16.1582ZM100.954 18.3206C100.047 18.8327 98.9902 19.096 97.7683 19.096V20.096C99.1383 20.096 100.369 19.7993 101.446 19.1914L100.954 18.3206ZM97.7683 17.936C98.6802 17.936 99.5071 17.7246 100.233 17.2887L99.719 16.4313C99.1654 16.7634 98.5203 16.936 97.7683 16.936V17.936ZM100.233 17.2887C100.954 16.8567 101.513 16.26 101.907 15.508L101.021 15.044C100.711 15.636 100.279 16.0953 99.719 16.4313L100.233 17.2887ZM101.903 15.5162C102.317 14.7602 102.516 13.8993 102.516 12.948H101.516C101.516 13.7567 101.348 14.4478 101.026 15.0358L101.903 15.5162ZM102.516 12.948C102.516 11.9967 102.317 11.1358 101.903 10.3798L101.026 10.8602C101.348 11.4482 101.516 12.1393 101.516 12.948H102.516ZM101.909 10.3923C101.516 9.62411 100.957 9.01713 100.233 8.58325L99.719 9.44075C100.276 9.77487 100.708 10.2399 101.019 10.8477L101.909 10.3923ZM100.233 8.58325C99.5071 8.14743 98.6802 7.936 97.7683 7.936V8.936C98.5203 8.936 99.1654 9.10857 99.719 9.44075L100.233 8.58325ZM97.7683 7.936C96.8563 7.936 96.0294 8.14743 95.303 8.58325L95.8175 9.44075C96.3711 9.10857 97.0162 8.936 97.7683 8.936V7.936ZM95.303 8.58325C94.5819 9.01593 94.016 9.62023 93.6074 10.3842L94.4891 10.8558C94.8165 10.2438 95.2586 9.77607 95.8175 9.44075L95.303 8.58325ZM93.6097 10.3798C93.1957 11.1358 92.9963 11.9967 92.9963 12.948H93.9963C93.9963 12.1393 94.1648 11.4482 94.4868 10.8602L93.6097 10.3798ZM92.9963 12.948C92.9963 13.8993 93.1957 14.7602 93.6097 15.5162L94.4868 15.0358C94.1648 14.4478 93.9963 13.7567 93.9963 12.948H92.9963ZM93.6097 15.5162C94.0191 16.2638 94.5848 16.8578 95.303 17.2887L95.8175 16.4313C95.2557 16.0942 94.8134 15.6322 94.4868 15.0358L93.6097 15.5162ZM95.303 17.2887C96.0294 17.7246 96.8563 17.936 97.7683 17.936V16.936C97.0162 16.936 96.3711 16.7634 95.8175 16.4313L95.303 17.2887ZM124.356 19.188L123.99 19.5292L124.002 19.5418L124.014 19.5535L124.356 19.188ZM123.276 9.204L122.922 9.5576L122.928 9.5633L123.276 9.204ZM119.268 9.324L118.904 8.98065L118.899 8.98614L119.268 9.324ZM118.476 11.532V12.032H118.976V11.532H118.476ZM116.484 11.532H115.984V12.032H116.484V11.532ZM117.156 8.796L117.59 9.04408L117.592 9.0403L117.156 8.796ZM119.028 6.924L118.787 6.48569L118.783 6.48775L119.028 6.924ZM124.236 6.852L123.989 7.28673L123.989 7.28673L124.236 6.852ZM125.868 8.628L125.418 8.848L125.424 8.85897L125.868 8.628ZM126.132 19.188L126.485 19.5416L126.491 19.5355L126.497 19.5292L126.132 19.188ZM108.348 19.188L107.982 19.5292L107.994 19.5418L108.006 19.5535L108.348 19.188ZM108.348 6.732L108.006 6.36647L108 6.37235L107.994 6.37845L108.348 6.732ZM110.124 19.188L110.477 19.5416L110.483 19.5355L110.489 19.5292L110.124 19.188ZM116.364 19.188L115.998 19.5292L116.01 19.5418L116.022 19.5535L116.364 19.188ZM115.284 9.204L114.93 9.5576L114.936 9.5633L115.284 9.204ZM111.276 9.324L110.912 8.98069L110.912 8.98069L111.276 9.324ZM110.46 11.532V12.032H110.96V11.532H110.46ZM108.948 11.532H108.448V12.032H108.948V11.532ZM109.572 8.796L110.013 9.03037L110.015 9.02668L109.572 8.796ZM111.3 6.924L111.04 6.4969L111.04 6.4969L111.3 6.924ZM116.244 6.852L115.997 7.28673L115.997 7.28673L116.244 6.852ZM117.876 8.628L117.426 8.848L117.432 8.85897L117.876 8.628ZM118.14 19.188L118.493 19.5416L118.499 19.5355L118.505 19.5292L118.14 19.188ZM125.244 19.024C125.008 19.024 124.837 18.9535 124.697 18.8225L124.014 19.5535C124.354 19.8705 124.775 20.024 125.244 20.024V19.024ZM124.721 18.8468C124.59 18.7065 124.52 18.5354 124.52 18.3H123.52C123.52 18.7686 123.673 19.1895 123.99 19.5292L124.721 18.8468ZM124.52 18.3V11.436H123.52V18.3H124.52ZM124.52 11.436C124.52 10.3551 124.254 9.45499 123.623 8.8447L122.928 9.5633C123.289 9.91301 123.52 10.5009 123.52 11.436H124.52ZM123.629 8.85045C123.026 8.24727 122.244 7.96 121.332 7.96V8.96C122.019 8.96 122.533 9.16873 122.922 9.55755L123.629 8.85045ZM121.332 7.96C120.37 7.96 119.548 8.29918 118.904 8.98069L119.631 9.66731C120.075 9.19682 120.629 8.96 121.332 8.96V7.96ZM118.899 8.98614C118.274 9.66788 117.976 10.5306 117.976 11.532H118.976C118.976 10.7414 119.205 10.1321 119.636 9.66186L118.899 8.98614ZM118.476 11.032H116.484V12.032H118.476V11.032ZM116.984 11.532C116.984 10.5656 117.191 9.7417 117.59 9.04407L116.721 8.54793C116.224 9.4183 115.984 10.4184 115.984 11.532H116.984ZM117.592 9.0403C117.995 8.32076 118.552 7.76319 119.272 7.36025L118.783 6.48775C117.903 6.9808 117.212 7.67124 116.719 8.5517L117.592 9.0403ZM119.268 7.36229C120.002 6.95935 120.846 6.752 121.812 6.752V5.752C120.697 5.752 119.685 5.99265 118.787 6.48571L119.268 7.36229ZM121.812 6.752C122.648 6.752 123.369 6.9347 123.989 7.28673L124.483 6.41727C123.694 5.9693 122.799 5.752 121.812 5.752V6.752ZM123.989 7.28673C124.598 7.63314 125.075 8.1468 125.419 8.84793L126.317 8.40807C125.892 7.5412 125.281 6.87086 124.483 6.41727L123.989 7.28673ZM125.424 8.85897C125.778 9.53873 125.968 10.3909 125.968 11.436H126.968C126.968 10.2731 126.757 9.25327 126.311 8.39703L125.424 8.85897ZM125.968 11.436V18.3H126.968V11.436H125.968ZM125.968 18.3C125.968 18.5354 125.897 18.7065 125.766 18.8468L126.497 19.5292C126.814 19.1895 126.968 18.7686 126.968 18.3H125.968ZM125.778 18.8344C125.663 18.9495 125.502 19.024 125.244 19.024V20.024C125.721 20.024 126.152 19.8745 126.485 19.5416L125.778 18.8344ZM109.236 19.024C109 19.024 108.829 18.9535 108.689 18.8225L108.006 19.5535C108.346 19.8705 108.767 20.024 109.236 20.024V19.024ZM108.713 18.8468C108.582 18.7065 108.512 18.5354 108.512 18.3H107.512C107.512 18.7686 107.665 19.1895 107.982 19.5292L108.713 18.8468ZM108.512 18.3V7.62H107.512V18.3H108.512ZM108.512 7.62C108.512 7.36143 108.586 7.20058 108.701 7.08555L107.994 6.37845C107.661 6.71142 107.512 7.14257 107.512 7.62H108.512ZM108.689 7.09753C108.829 6.96654 109 6.896 109.236 6.896V5.896C108.767 5.896 108.346 6.04946 108.006 6.36647L108.689 7.09753ZM109.236 6.896C109.494 6.896 109.655 6.97053 109.77 7.08555L110.477 6.37845C110.144 6.04547 109.713 5.896 109.236 5.896V6.896ZM109.77 7.08555C109.885 7.20058 109.96 7.36143 109.96 7.62H110.96C110.96 7.14257 110.81 6.71142 110.477 6.37845L109.77 7.08555ZM109.96 7.62V18.3H110.96V7.62H109.96ZM109.96 18.3C109.96 18.5354 109.889 18.7065 109.758 18.8468L110.489 19.5292C110.806 19.1895 110.96 18.7686 110.96 18.3H109.96ZM109.77 18.8344C109.655 18.9495 109.494 19.024 109.236 19.024V20.024C109.713 20.024 110.144 19.8745 110.477 19.5416L109.77 18.8344ZM117.252 19.024C117.016 19.024 116.845 18.9535 116.705 18.8225L116.022 19.5535C116.362 19.8705 116.783 20.024 117.252 20.024V19.024ZM116.729 18.8468C116.598 18.7065 116.528 18.5354 116.528 18.3H115.528C115.528 18.7686 115.681 19.1895 115.998 19.5292L116.729 18.8468ZM116.528 18.3V11.436H115.528V18.3H116.528ZM116.528 11.436C116.528 10.3551 116.262 9.45499 115.631 8.8447L114.936 9.5633C115.297 9.91301 115.528 10.5009 115.528 11.436H116.528ZM115.637 8.85045C115.034 8.24727 114.252 7.96 113.34 7.96V8.96C114.027 8.96 114.541 9.16873 114.93 9.55755L115.637 8.85045ZM113.34 7.96C112.378 7.96 111.556 8.29918 110.912 8.98069L111.639 9.66731C112.083 9.19682 112.637 8.96 113.34 8.96V7.96ZM110.912 8.98069C110.269 9.66185 109.96 10.5264 109.96 11.532H110.96C110.96 10.7456 111.194 10.1382 111.639 9.66731L110.912 8.98069ZM110.46 11.032H108.948V12.032H110.46V11.032ZM109.448 11.532C109.448 10.5597 109.642 9.73071 110.013 9.03036L109.13 8.56164C108.67 9.42929 108.448 10.4243 108.448 11.532H109.448ZM110.015 9.02668C110.391 8.30375 110.905 7.74936 111.56 7.3511L111.04 6.4969C110.222 6.99463 109.584 7.68825 109.128 8.56532L110.015 9.02668ZM111.56 7.3511C112.21 6.95528 112.958 6.752 113.82 6.752V5.752C112.793 5.752 111.861 5.99672 111.04 6.4969L111.56 7.3511ZM113.82 6.752C114.656 6.752 115.377 6.9347 115.997 7.28673L116.491 6.41727C115.702 5.9693 114.807 5.752 113.82 5.752V6.752ZM115.997 7.28673C116.606 7.63314 117.083 8.1468 117.427 8.84793L118.325 8.40807C117.9 7.5412 117.289 6.87086 116.491 6.41727L115.997 7.28673ZM117.432 8.85897C117.786 9.53873 117.976 10.3909 117.976 11.436H118.976C118.976 10.2731 118.765 9.25327 118.319 8.39703L117.432 8.85897ZM117.976 11.436V18.3H118.976V11.436H117.976ZM117.976 18.3C117.976 18.5354 117.905 18.7065 117.774 18.8468L118.505 19.5292C118.822 19.1895 118.976 18.7686 118.976 18.3H117.976ZM117.786 18.8344C117.671 18.9495 117.51 19.024 117.252 19.024V20.024C117.729 20.024 118.16 19.8745 118.493 19.5416L117.786 18.8344ZM146.879 19.188L146.513 19.5292L146.525 19.5418L146.538 19.5535L146.879 19.188ZM145.799 9.204L145.445 9.5576L145.451 9.5633L145.799 9.204ZM141.791 9.324L141.427 8.98065L141.422 8.98614L141.791 9.324ZM140.999 11.532V12.032H141.499V11.532H140.999ZM139.007 11.532H138.507V12.032H139.007V11.532ZM139.679 8.796L140.113 9.04408L140.115 9.0403L139.679 8.796ZM141.551 6.924L141.31 6.48569L141.307 6.48775L141.551 6.924ZM146.759 6.852L146.512 7.28673L146.512 7.28673L146.759 6.852ZM148.391 8.628L147.942 8.848L147.948 8.85897L148.391 8.628ZM148.655 19.188L149.009 19.5416L149.015 19.5355L149.021 19.5292L148.655 19.188ZM130.871 19.188L130.505 19.5292L130.517 19.5418L130.53 19.5535L130.871 19.188ZM130.871 6.732L130.53 6.36647L130.524 6.37235L130.517 6.37845L130.871 6.732ZM132.647 19.188L133.001 19.5416L133.007 19.5355L133.013 19.5292L132.647 19.188ZM138.887 19.188L138.521 19.5292L138.533 19.5418L138.546 19.5535L138.887 19.188ZM137.807 9.204L137.453 9.5576L137.459 9.5633L137.807 9.204ZM133.799 9.324L133.435 8.98069L133.435 8.98069L133.799 9.324ZM132.983 11.532V12.032H133.483V11.532H132.983ZM131.471 11.532H130.971V12.032H131.471V11.532ZM132.095 8.796L132.537 9.03037L132.539 9.02668L132.095 8.796ZM133.823 6.924L133.563 6.4969L133.563 6.4969L133.823 6.924ZM138.767 6.852L138.52 7.28673L138.52 7.28673L138.767 6.852ZM140.399 8.628L139.95 8.848L139.956 8.85897L140.399 8.628ZM140.663 19.188L141.017 19.5416L141.023 19.5355L141.029 19.5292L140.663 19.188ZM147.767 19.024C147.532 19.024 147.361 18.9535 147.22 18.8225L146.538 19.5535C146.877 19.8705 147.298 20.024 147.767 20.024V19.024ZM147.245 18.8468C147.114 18.7065 147.043 18.5354 147.043 18.3H146.043C146.043 18.7686 146.196 19.1895 146.513 19.5292L147.245 18.8468ZM147.043 18.3V11.436H146.043V18.3H147.043ZM147.043 11.436C147.043 10.3551 146.777 9.45499 146.147 8.8447L145.451 9.5633C145.813 9.91301 146.043 10.5009 146.043 11.436H147.043ZM146.153 8.85045C145.549 8.24727 144.767 7.96 143.855 7.96V8.96C144.543 8.96 145.057 9.16873 145.445 9.55755L146.153 8.85045ZM143.855 7.96C142.893 7.96 142.071 8.29918 141.427 8.98069L142.155 9.66731C142.599 9.19682 143.153 8.96 143.855 8.96V7.96ZM141.422 8.98614C140.797 9.66788 140.499 10.5306 140.499 11.532H141.499C141.499 10.7414 141.729 10.1321 142.16 9.66186L141.422 8.98614ZM140.999 11.032H139.007V12.032H140.999V11.032ZM139.507 11.532C139.507 10.5656 139.714 9.7417 140.113 9.04407L139.245 8.54793C138.748 9.4183 138.507 10.4184 138.507 11.532H139.507ZM140.115 9.0403C140.518 8.32076 141.076 7.76319 141.795 7.36025L141.307 6.48775C140.426 6.9808 139.736 7.67124 139.243 8.5517L140.115 9.0403ZM141.792 7.36229C142.526 6.95935 143.369 6.752 144.335 6.752V5.752C143.221 5.752 142.208 5.99265 141.31 6.48571L141.792 7.36229ZM144.335 6.752C145.172 6.752 145.892 6.9347 146.512 7.28673L147.006 6.41727C146.218 5.9693 145.322 5.752 144.335 5.752V6.752ZM146.512 7.28673C147.122 7.63314 147.599 8.1468 147.942 8.84793L148.84 8.40807C148.415 7.5412 147.804 6.87086 147.006 6.41727L146.512 7.28673ZM147.948 8.85897C148.302 9.53873 148.491 10.3909 148.491 11.436H149.491C149.491 10.2731 149.28 9.25327 148.834 8.39703L147.948 8.85897ZM148.491 11.436V18.3H149.491V11.436H148.491ZM148.491 18.3C148.491 18.5354 148.42 18.7065 148.289 18.8468L149.021 19.5292C149.338 19.1895 149.491 18.7686 149.491 18.3H148.491ZM148.301 18.8344C148.186 18.9495 148.026 19.024 147.767 19.024V20.024C148.244 20.024 148.676 19.8745 149.009 19.5416L148.301 18.8344ZM131.759 19.024C131.524 19.024 131.353 18.9535 131.212 18.8225L130.53 19.5535C130.869 19.8705 131.29 20.024 131.759 20.024V19.024ZM131.237 18.8468C131.106 18.7065 131.035 18.5354 131.035 18.3H130.035C130.035 18.7686 130.188 19.1895 130.505 19.5292L131.237 18.8468ZM131.035 18.3V7.62H130.035V18.3H131.035ZM131.035 7.62C131.035 7.36143 131.11 7.20058 131.225 7.08555L130.517 6.37845C130.184 6.71142 130.035 7.14257 130.035 7.62H131.035ZM131.212 7.09753C131.353 6.96654 131.524 6.896 131.759 6.896V5.896C131.29 5.896 130.869 6.04946 130.53 6.36647L131.212 7.09753ZM131.759 6.896C132.018 6.896 132.178 6.97053 132.293 7.08555L133.001 6.37845C132.668 6.04547 132.236 5.896 131.759 5.896V6.896ZM132.293 7.08555C132.408 7.20058 132.483 7.36143 132.483 7.62H133.483C133.483 7.14257 133.334 6.71142 133.001 6.37845L132.293 7.08555ZM132.483 7.62V18.3H133.483V7.62H132.483ZM132.483 18.3C132.483 18.5354 132.412 18.7065 132.281 18.8468L133.013 19.5292C133.33 19.1895 133.483 18.7686 133.483 18.3H132.483ZM132.293 18.8344C132.178 18.9495 132.018 19.024 131.759 19.024V20.024C132.236 20.024 132.668 19.8745 133.001 19.5416L132.293 18.8344ZM139.775 19.024C139.54 19.024 139.369 18.9535 139.228 18.8225L138.546 19.5535C138.885 19.8705 139.306 20.024 139.775 20.024V19.024ZM139.253 18.8468C139.122 18.7065 139.051 18.5354 139.051 18.3H138.051C138.051 18.7686 138.204 19.1895 138.521 19.5292L139.253 18.8468ZM139.051 18.3V11.436H138.051V18.3H139.051ZM139.051 11.436C139.051 10.3551 138.785 9.45499 138.155 8.8447L137.459 9.5633C137.821 9.91301 138.051 10.5009 138.051 11.436H139.051ZM138.161 8.85045C137.557 8.24727 136.775 7.96 135.863 7.96V8.96C136.551 8.96 137.065 9.16873 137.453 9.55755L138.161 8.85045ZM135.863 7.96C134.901 7.96 134.079 8.29918 133.435 8.98069L134.163 9.66731C134.607 9.19682 135.161 8.96 135.863 8.96V7.96ZM133.435 8.98069C132.792 9.66185 132.483 10.5264 132.483 11.532H133.483C133.483 10.7456 133.718 10.1382 134.163 9.66731L133.435 8.98069ZM132.983 11.032H131.471V12.032H132.983V11.032ZM131.971 11.532C131.971 10.5597 132.165 9.73071 132.537 9.03036L131.653 8.56164C131.193 9.42929 130.971 10.4243 130.971 11.532H131.971ZM132.539 9.02668C132.915 8.30375 133.429 7.74936 134.083 7.3511L133.563 6.4969C132.745 6.99463 132.107 7.68825 131.651 8.56532L132.539 9.02668ZM134.083 7.3511C134.733 6.95528 135.482 6.752 136.343 6.752V5.752C135.316 5.752 134.385 5.99672 133.563 6.4969L134.083 7.3511ZM136.343 6.752C137.18 6.752 137.9 6.9347 138.52 7.28673L139.014 6.41727C138.226 5.9693 137.33 5.752 136.343 5.752V6.752ZM138.52 7.28673C139.13 7.63314 139.607 8.1468 139.95 8.84793L140.848 8.40807C140.423 7.5412 139.812 6.87086 139.014 6.41727L138.52 7.28673ZM139.956 8.85897C140.31 9.53873 140.499 10.3909 140.499 11.436H141.499C141.499 10.2731 141.288 9.25327 140.842 8.39703L139.956 8.85897ZM140.499 11.436V18.3H141.499V11.436H140.499ZM140.499 18.3C140.499 18.5354 140.428 18.7065 140.297 18.8468L141.029 19.5292C141.346 19.1895 141.499 18.7686 141.499 18.3H140.499ZM140.309 18.8344C140.194 18.9495 140.034 19.024 139.775 19.024V20.024C140.252 20.024 140.684 19.8745 141.017 19.5416L140.309 18.8344ZM153.634 19.164L153.269 19.5052L153.281 19.5178L153.293 19.5295L153.634 19.164ZM153.634 6.708L153.293 6.34247L153.287 6.34835L153.281 6.35445L153.634 6.708ZM155.41 19.164L155.764 19.5176L155.77 19.5115L155.776 19.5052L155.41 19.164ZM153.394 3.78L153.032 4.12437L153.041 4.13367L153.05 4.1425L153.394 3.78ZM153.394 1.548L153.041 1.19445L153.041 1.19445L153.394 1.548ZM155.626 1.548L155.264 1.89237L155.273 1.90167L155.282 1.9105L155.626 1.548ZM155.626 3.78L155.98 4.13355L155.98 4.13355L155.626 3.78ZM154.522 19C154.287 19 154.116 18.9295 153.976 18.7985L153.293 19.5295C153.633 19.8465 154.054 20 154.522 20V19ZM154 18.8228C153.869 18.6825 153.798 18.5114 153.798 18.276H152.798C152.798 18.7446 152.952 19.1655 153.269 19.5052L154 18.8228ZM153.798 18.276V7.596H152.798V18.276H153.798ZM153.798 7.596C153.798 7.33743 153.873 7.17657 153.988 7.06155L153.281 6.35445C152.948 6.68742 152.798 7.11857 152.798 7.596H153.798ZM153.976 7.07353C154.116 6.94254 154.287 6.872 154.522 6.872V5.872C154.054 5.872 153.633 6.02546 153.293 6.34247L153.976 7.07353ZM154.522 6.872C154.781 6.872 154.942 6.94653 155.057 7.06155L155.764 6.35445C155.431 6.02147 155 5.872 154.522 5.872V6.872ZM155.057 7.06155C155.172 7.17657 155.246 7.33743 155.246 7.596H156.246C156.246 7.11857 156.097 6.68742 155.764 6.35445L155.057 7.06155ZM155.246 7.596V18.276H156.246V7.596H155.246ZM155.246 18.276C155.246 18.5114 155.176 18.6825 155.045 18.8228L155.776 19.5052C156.093 19.1655 156.246 18.7446 156.246 18.276H155.246ZM155.057 18.8104C154.942 18.9255 154.781 19 154.522 19V20C155 20 155.431 19.8505 155.764 19.5176L155.057 18.8104ZM154.522 3.736C154.222 3.736 153.968 3.63535 153.739 3.4175L153.05 4.1425C153.461 4.53265 153.959 4.736 154.522 4.736V3.736ZM153.757 3.43562C153.539 3.20631 153.438 2.95277 153.438 2.652H152.438C152.438 3.21523 152.642 3.71369 153.032 4.12437L153.757 3.43562ZM153.438 2.652C153.438 2.35189 153.538 2.11128 153.748 1.90155L153.041 1.19445C152.643 1.59272 152.438 2.08811 152.438 2.652H153.438ZM153.748 1.90155C153.979 1.67035 154.23 1.568 154.522 1.568V0.568C153.951 0.568 153.45 0.785644 153.041 1.19445L153.748 1.90155ZM154.522 1.568C154.814 1.568 155.052 1.6693 155.264 1.89237L155.989 1.20362C155.593 0.786698 155.095 0.568 154.522 0.568V1.568ZM155.282 1.9105C155.505 2.12242 155.606 2.36038 155.606 2.652H156.606C156.606 2.07962 156.388 1.58158 155.971 1.1855L155.282 1.9105ZM155.606 2.652C155.606 2.94453 155.504 3.19525 155.273 3.42645L155.98 4.13355C156.389 3.72475 156.606 3.22347 156.606 2.652H155.606ZM155.273 3.42645C155.063 3.63617 154.823 3.736 154.522 3.736V4.736C155.086 4.736 155.582 4.53183 155.98 4.13355L155.273 3.42645ZM162.917 18.9L162.644 19.3193L162.652 19.324L162.917 18.9ZM161.405 17.22L160.962 17.4516L160.962 17.4516L161.405 17.22ZM162.917 2.532L163.27 2.17845L163.27 2.17845L162.917 2.532ZM163.781 16.452L164.168 16.1362L164.168 16.1362L163.781 16.452ZM166.613 17.436L166.233 17.7614L166.239 17.7689L166.246 17.7762L166.613 17.436ZM166.517 19.164L166.199 18.778L166.193 18.7828L166.187 18.7877L166.517 19.164ZM158.933 8.628L158.593 8.9954L158.593 8.9954L158.933 8.628ZM158.933 7.14L158.593 6.7726L158.593 6.7726L158.933 7.14ZM166.109 7.14L166.448 6.7726L166.448 6.7726L166.109 7.14ZM166.109 8.628L166.448 8.9954L166.448 8.9954L166.109 8.628ZM165.077 19C164.364 19 163.737 18.8233 163.182 18.476L162.652 19.324C163.376 19.7767 164.189 20 165.077 20V19ZM163.189 18.4808C162.624 18.1136 162.178 17.6194 161.848 16.9884L160.962 17.4516C161.368 18.2286 161.929 18.8544 162.644 19.3192L163.189 18.4808ZM161.848 16.9884C161.521 16.3633 161.353 15.6522 161.353 14.844H160.353C160.353 15.7958 160.552 16.6687 160.962 17.4516L161.848 16.9884ZM161.353 14.844V3.396H160.353V14.844H161.353ZM161.353 3.396C161.353 3.16046 161.423 3.00495 161.542 2.88555L160.835 2.17845C160.506 2.50705 160.353 2.92754 160.353 3.396H161.353ZM161.542 2.88555C161.662 2.76615 161.817 2.696 162.053 2.696V1.696C161.584 1.696 161.164 1.84984 160.835 2.17845L161.542 2.88555ZM162.053 2.696C162.288 2.696 162.444 2.76615 162.563 2.88555L163.27 2.17845C162.942 1.84984 162.521 1.696 162.053 1.696V2.696ZM162.563 2.88555C162.682 3.00495 162.753 3.16046 162.753 3.396H163.753C163.753 2.92754 163.599 2.50705 163.27 2.17845L162.563 2.88555ZM162.753 3.396V14.844H163.753V3.396H162.753ZM162.753 14.844C162.753 15.5811 162.958 16.2336 163.393 16.7678L164.168 16.1362C163.9 15.8064 163.753 15.3869 163.753 14.844H162.753ZM163.393 16.7678C163.83 17.3046 164.4 17.6 165.077 17.6V16.6C164.729 16.6 164.435 16.4634 164.168 16.1362L163.393 16.7678ZM165.077 17.6H165.893V16.6H165.077V17.6ZM165.893 17.6C166.031 17.6 166.133 17.6451 166.233 17.7614L166.992 17.1106C166.708 16.7789 166.331 16.6 165.893 16.6V17.6ZM166.246 17.7762C166.355 17.8937 166.425 18.0537 166.425 18.3H167.425C167.425 17.8423 167.286 17.4263 166.979 17.0958L166.246 17.7762ZM166.425 18.3C166.425 18.5024 166.356 18.6489 166.199 18.778L166.834 19.55C167.222 19.2311 167.425 18.8016 167.425 18.3H166.425ZM166.187 18.7877C166.042 18.9152 165.832 19 165.509 19V20C166.018 20 166.48 19.8608 166.846 19.5403L166.187 18.7877ZM165.509 19H165.077V20H165.509V19ZM159.749 8.416C159.513 8.416 159.371 8.35181 159.272 8.2606L158.593 8.9954C158.911 9.28819 159.312 9.416 159.749 9.416V8.416ZM159.272 8.2606C159.168 8.16511 159.121 8.05921 159.121 7.908H158.121C158.121 8.33279 158.281 8.70689 158.593 8.9954L159.272 8.2606ZM159.121 7.908C159.121 7.70745 159.18 7.59192 159.272 7.5074L158.593 6.7726C158.269 7.07208 158.121 7.46855 158.121 7.908H159.121ZM159.272 7.5074C159.371 7.41619 159.513 7.352 159.749 7.352V6.352C159.312 6.352 158.911 6.47981 158.593 6.7726L159.272 7.5074ZM159.749 7.352H165.293V6.352H159.749V7.352ZM165.293 7.352C165.528 7.352 165.671 7.41619 165.769 7.5074L166.448 6.7726C166.131 6.47981 165.729 6.352 165.293 6.352V7.352ZM165.769 7.5074C165.861 7.59192 165.921 7.70745 165.921 7.908H166.921C166.921 7.46855 166.772 7.07208 166.448 6.7726L165.769 7.5074ZM165.921 7.908C165.921 8.05921 165.873 8.16511 165.769 8.2606L166.448 8.9954C166.76 8.70689 166.921 8.33279 166.921 7.908H165.921ZM165.769 8.2606C165.671 8.35181 165.528 8.416 165.293 8.416V9.416C165.729 9.416 166.131 9.28819 166.448 8.9954L165.769 8.2606ZM165.293 8.416H159.749V9.416H165.293V8.416Z" fill="black" mask="url(#path-1-outside-1_1252_32319)"></path>
</svg>
