<?xml version="1.0" encoding="UTF-8"?>
<svg xmlns="http://www.w3.org/2000/svg" width="70" height="70" viewBox="0 0 70 70" fill="none">
  <mask id="mask0_2549_9837" style="mask-type:alpha" maskUnits="userSpaceOnUse" x="0" y="0" width="70" height="70">
    <rect width="70" height="70" fill="#D9D9D9"></rect>
  </mask>
  <g mask="url(#mask0_2549_9837)">
    <mask id="mask1_2549_9837" style="mask-type:alpha" maskUnits="userSpaceOnUse" x="0" y="0" width="71" height="71">
      <rect x="0.0756836" y="0.242188" width="70" height="70" fill="#D9D9D9"></rect>
    </mask>
    <g mask="url(#mask1_2549_9837)">
      <path d="M50.4611 64.4092C46.6485 64.4092 43.3984 63.0656 40.7107 60.3783C38.0235 57.6906 36.6799 54.4405 36.6799 50.6279C36.6799 46.8154 38.0235 43.5652 40.7107 40.8775C43.3984 38.1903 46.6485 36.8467 50.4611 36.8467C54.2737 36.8467 57.5238 38.1903 60.2115 40.8775C62.8987 43.5652 64.2424 46.8154 64.2424 50.6279C64.2424 54.4405 62.8987 57.6906 60.2115 60.3783C57.5238 63.0656 54.2737 64.4092 50.4611 64.4092ZM51.2632 50.4821V43.7067C51.2632 43.3139 51.1246 42.9838 50.8476 42.7165C50.5705 42.4491 50.2472 42.3154 49.8778 42.3154C49.4889 42.3154 49.1486 42.4613 48.8569 42.7529C48.5653 43.0446 48.4194 43.3849 48.4194 43.7738V50.6279C48.4194 50.8987 48.468 51.1607 48.5653 51.414C48.6625 51.6677 48.8083 51.9161 49.0028 52.1592L53.6694 56.9717C53.9611 57.2634 54.3014 57.4092 54.6903 57.4092C55.0792 57.4092 55.4194 57.2634 55.7111 56.9717C56.0028 56.68 56.1486 56.3397 56.1486 55.9508C56.1486 55.562 56.0028 55.2217 55.7111 54.93L51.2632 50.4821ZM13.2007 61.4925C11.9976 61.4925 10.9677 61.064 10.1112 60.207C9.25419 59.3505 8.82568 58.3206 8.82568 57.1175V13.3675C8.82568 12.1036 9.23888 11.0585 10.0653 10.2321C10.8917 9.40571 11.9368 8.99251 13.2007 8.99251H27.9299C28.2701 7.29112 29.1087 5.89355 30.4455 4.7998C31.7823 3.70605 33.3257 3.15918 35.0757 3.15918C36.8257 3.15918 38.3691 3.70605 39.7059 4.7998C41.0427 5.89355 41.8812 7.29112 42.2215 8.99251H56.9507C58.2146 8.99251 59.2597 9.40571 60.0861 10.2321C60.9125 11.0585 61.3257 12.1036 61.3257 13.3675V30.7946C61.3257 31.4144 61.1147 31.9338 60.6928 32.3528C60.2713 32.7723 59.7487 32.9821 59.1251 32.9821C58.5019 32.9821 57.9837 32.7723 57.5705 32.3528C57.1573 31.9338 56.9507 31.4144 56.9507 30.7946V13.3675H52.5757V17.7425C52.5757 18.3623 52.3662 18.8817 51.9471 19.3007C51.5276 19.7203 51.008 19.93 50.3882 19.93H19.7632C19.1434 19.93 18.624 19.7203 18.205 19.3007C17.7854 18.8817 17.5757 18.3623 17.5757 17.7425V13.3675H13.2007V57.1175H32.0132C32.633 57.1175 33.1526 57.3285 33.5721 57.7504C33.9912 58.1719 34.2007 58.6945 34.2007 59.3181C34.2007 59.9413 33.9912 60.4595 33.5721 60.8727C33.1526 61.2859 32.633 61.4925 32.0132 61.4925H13.2007ZM35.0757 13.3675C35.9021 13.3675 36.5948 13.088 37.1538 12.529C37.7128 11.9699 37.9924 11.2772 37.9924 10.4508C37.9924 9.62446 37.7128 8.93175 37.1538 8.37272C36.5948 7.81369 35.9021 7.53418 35.0757 7.53418C34.2493 7.53418 33.5566 7.81369 32.9976 8.37272C32.4385 8.93175 32.159 9.62446 32.159 10.4508C32.159 11.2772 32.4385 11.9699 32.9976 12.529C33.5566 13.088 34.2493 13.3675 35.0757 13.3675Z" fill="#1C1B1F"></path>
    </g>
  </g>
</svg>
