<?xml version="1.0" encoding="UTF-8"?>
<svg xmlns="http://www.w3.org/2000/svg" width="70" height="70" viewBox="0 0 70 70" fill="none">
  <mask id="mask0_2548_9821" style="mask-type:alpha" maskUnits="userSpaceOnUse" x="0" y="0" width="70" height="70">
    <rect width="70" height="70" fill="#D9D9D9"></rect>
  </mask>
  <g mask="url(#mask0_2548_9821)">
    <mask id="mask1_2548_9821" style="mask-type:alpha" maskUnits="userSpaceOnUse" x="0" y="0" width="71" height="71">
      <rect x="0.0756836" y="0.242188" width="70" height="70" fill="#D9D9D9"></rect>
    </mask>
    <g mask="url(#mask1_2548_9821)">
      <path d="M39.4507 28.6797C38.8309 28.6797 38.3115 28.4699 37.8925 28.0504C37.4729 27.6314 37.2632 27.112 37.2632 26.4922V11.1797C37.2632 10.5599 37.4729 10.0402 37.8925 9.62073C38.3115 9.2017 38.8309 8.99219 39.4507 8.99219H59.1382C59.758 8.99219 60.2776 9.2017 60.6971 9.62073C61.1162 10.0402 61.3257 10.5599 61.3257 11.1797V26.4922C61.3257 27.112 61.1162 27.6314 60.6971 28.0504C60.2776 28.4699 59.758 28.6797 59.1382 28.6797H39.4507ZM11.0132 37.4297C10.3934 37.4297 9.87398 37.2199 9.45495 36.8004C9.03544 36.3814 8.82568 35.862 8.82568 35.2422V11.1797C8.82568 10.5599 9.03544 10.0402 9.45495 9.62073C9.87398 9.2017 10.3934 8.99219 11.0132 8.99219H30.7007C31.3205 8.99219 31.8401 9.2017 32.2596 9.62073C32.6787 10.0402 32.8882 10.5599 32.8882 11.1797V35.2422C32.8882 35.862 32.6787 36.3814 32.2596 36.8004C31.8401 37.2199 31.3205 37.4297 30.7007 37.4297H11.0132ZM39.4507 61.4922C38.8309 61.4922 38.3115 61.2824 37.8925 60.8629C37.4729 60.4439 37.2632 59.9245 37.2632 59.3047V35.2422C37.2632 34.6224 37.4729 34.1027 37.8925 33.6832C38.3115 33.2642 38.8309 33.0547 39.4507 33.0547H59.1382C59.758 33.0547 60.2776 33.2642 60.6971 33.6832C61.1162 34.1027 61.3257 34.6224 61.3257 35.2422V59.3047C61.3257 59.9245 61.1162 60.4439 60.6971 60.8629C60.2776 61.2824 59.758 61.4922 59.1382 61.4922H39.4507ZM11.0132 61.4922C10.3934 61.4922 9.87398 61.2824 9.45495 60.8629C9.03544 60.4439 8.82568 59.9245 8.82568 59.3047V43.9922C8.82568 43.3724 9.03544 42.8527 9.45495 42.4332C9.87398 42.0142 10.3934 41.8047 11.0132 41.8047H30.7007C31.3205 41.8047 31.8401 42.0142 32.2596 42.4332C32.6787 42.8527 32.8882 43.3724 32.8882 43.9922V59.3047C32.8882 59.9245 32.6787 60.4439 32.2596 60.8629C31.8401 61.2824 31.3205 61.4922 30.7007 61.4922H11.0132Z" fill="#1C1B1F"></path>
    </g>
  </g>
</svg>
