<?xml version="1.0" encoding="UTF-8"?>
<svg xmlns="http://www.w3.org/2000/svg" width="70" height="70" viewBox="0 0 70 70" fill="none">
  <mask id="mask0_2551_10082" style="mask-type:alpha" maskUnits="userSpaceOnUse" x="0" y="0" width="70" height="70">
    <rect width="70" height="70" fill="#D9D9D9"></rect>
  </mask>
  <g mask="url(#mask0_2551_10082)">
    <path d="M9.625 61.25C8.45833 61.25 7.4375 60.8125 6.5625 59.9375C5.6875 59.0625 5.25 58.0417 5.25 56.875V13.125C5.25 11.9583 5.6875 10.9375 6.5625 10.0625C7.4375 9.1875 8.45833 8.75 9.625 8.75H60.375C61.5417 8.75 62.5625 9.1875 63.4375 10.0625C64.3125 10.9375 64.75 11.9583 64.75 13.125V56.875C64.75 58.0417 64.3125 59.0625 63.4375 59.9375C62.5625 60.8125 61.5417 61.25 60.375 61.25H9.625ZM26.25 49.5833C27.0764 49.5833 27.7691 49.3038 28.3281 48.7448C28.8872 48.1858 29.1667 47.4931 29.1667 46.6667C29.1667 45.8403 28.8872 45.1476 28.3281 44.5885C27.7691 44.0295 27.0764 43.75 26.25 43.75H17.5C16.6736 43.75 15.9809 44.0295 15.4219 44.5885C14.8628 45.1476 14.5833 45.8403 14.5833 46.6667C14.5833 47.4931 14.8628 48.1858 15.4219 48.7448C15.9809 49.3038 16.6736 49.5833 17.5 49.5833H26.25ZM42.4375 35.5104L40.3229 33.3958C39.7396 32.8125 39.059 32.533 38.2812 32.5573C37.5035 32.5816 36.8229 32.8854 36.2396 33.4688C35.7049 34.0521 35.4254 34.7326 35.401 35.5104C35.3767 36.2882 35.6562 36.9688 36.2396 37.5521L40.9063 42.2188C41.3438 42.6563 41.8542 42.875 42.4375 42.875C43.0208 42.875 43.5313 42.6563 43.9688 42.2188L54.8333 31.3542C55.4167 30.7708 55.7083 30.0903 55.7083 29.3125C55.7083 28.5347 55.4167 27.8542 54.8333 27.2708C54.25 26.6875 53.5573 26.3958 52.7552 26.3958C51.9531 26.3958 51.2604 26.6875 50.6771 27.2708L42.4375 35.5104ZM26.25 37.9167C27.0764 37.9167 27.7691 37.6372 28.3281 37.0781C28.8872 36.5191 29.1667 35.8264 29.1667 35C29.1667 34.1736 28.8872 33.4809 28.3281 32.9219C27.7691 32.3628 27.0764 32.0833 26.25 32.0833H17.5C16.6736 32.0833 15.9809 32.3628 15.4219 32.9219C14.8628 33.4809 14.5833 34.1736 14.5833 35C14.5833 35.8264 14.8628 36.5191 15.4219 37.0781C15.9809 37.6372 16.6736 37.9167 17.5 37.9167H26.25ZM26.25 26.25C27.0764 26.25 27.7691 25.9705 28.3281 25.4115C28.8872 24.8524 29.1667 24.1597 29.1667 23.3333C29.1667 22.5069 28.8872 21.8142 28.3281 21.2552C27.7691 20.6962 27.0764 20.4167 26.25 20.4167H17.5C16.6736 20.4167 15.9809 20.6962 15.4219 21.2552C14.8628 21.8142 14.5833 22.5069 14.5833 23.3333C14.5833 24.1597 14.8628 24.8524 15.4219 25.4115C15.9809 25.9705 16.6736 26.25 17.5 26.25H26.25Z" fill="#1C1B1F"></path>
  </g>
</svg>
