<?xml version="1.0" encoding="UTF-8"?>
<svg xmlns="http://www.w3.org/2000/svg" width="70" height="70" viewBox="0 0 70 70" fill="none">
  <mask id="mask0_2551_10010" style="mask-type:alpha" maskUnits="userSpaceOnUse" x="0" y="0" width="70" height="70">
    <rect width="70" height="70" fill="#D9D9D9"></rect>
  </mask>
  <g mask="url(#mask0_2551_10010)">
    <path d="M11.6665 55.4163V51.0413H17.4998V28.8747C17.4998 24.7913 18.703 21.1334 21.1092 17.9007C23.5155 14.6681 26.6873 12.6386 30.6248 11.8122V5.83301H39.3748V11.8122C43.3123 12.6386 46.4842 14.6681 48.8905 17.9007C51.2967 21.1334 52.4998 24.7913 52.4998 28.8747V51.0413H58.3332V55.4163H11.6665ZM34.9998 64.1663C33.3957 64.1663 32.0224 63.5952 30.88 62.4528C29.7377 61.3104 29.1665 59.9372 29.1665 58.333H40.8332C40.8332 59.9372 40.262 61.3104 39.1196 62.4528C37.9773 63.5952 36.604 64.1663 34.9998 64.1663Z" fill="#1C1B1F"></path>
  </g>
</svg>
