<?xml version="1.0" encoding="UTF-8"?>
<svg xmlns="http://www.w3.org/2000/svg" width="70" height="70" viewBox="0 0 70 70" fill="none">
  <mask id="mask0_2551_10092" style="mask-type:alpha" maskUnits="userSpaceOnUse" x="0" y="0" width="70" height="70">
    <rect width="70" height="70" fill="#D9D9D9"></rect>
  </mask>
  <g mask="url(#mask0_2551_10092)">
    <path d="M37.1877 32.8125V10.2812C43.1668 10.6701 48.2831 13.0399 52.5366 17.3906C56.7901 21.7413 59.1842 26.8819 59.7189 32.8125H37.1877ZM32.8127 59.7188C26.4446 59.184 21.0852 56.5347 16.7345 51.7708C12.3838 47.0069 10.2085 41.4167 10.2085 35C10.2085 28.5833 12.3838 22.9931 16.7345 18.2292C21.0852 13.4653 26.4446 10.816 32.8127 10.2812V59.7188ZM37.1877 59.7188V37.1875H59.7189C59.1842 43.1181 56.7901 48.2587 52.5366 52.6094C48.2831 56.9601 43.1668 59.3299 37.1877 59.7188Z" fill="#1C1B1F"></path>
  </g>
</svg>
