<?xml version="1.0" encoding="UTF-8"?>
<svg xmlns="http://www.w3.org/2000/svg" width="70" height="70" viewBox="0 0 70 70" fill="none">
  <mask id="mask0_2551_9953" style="mask-type:alpha" maskUnits="userSpaceOnUse" x="0" y="0" width="70" height="70">
    <rect width="70" height="70" fill="#D9D9D9"></rect>
  </mask>
  <g mask="url(#mask0_2551_9953)">
    <path d="M62.7082 47.1777V28.8027L37.0415 42.6569C36.361 43.0458 35.6561 43.2281 34.9269 43.2038C34.1978 43.1795 33.4929 42.9729 32.8123 42.584L6.4165 28.1465C6.02762 27.9034 5.7481 27.6232 5.57796 27.3058C5.40782 26.9888 5.32275 26.6364 5.32275 26.2485C5.32275 25.861 5.40782 25.5093 5.57796 25.1934C5.7481 24.8774 6.02762 24.5979 6.4165 24.3548L32.8123 9.91732C33.1463 9.72287 33.4895 9.57704 33.8419 9.47982C34.1944 9.3826 34.556 9.33398 34.9269 9.33398C35.2978 9.33398 35.6595 9.3826 36.0119 9.47982C36.3644 9.57704 36.7076 9.72287 37.0415 9.91732L65.9165 25.5944C66.2869 25.782 66.574 26.054 66.7777 26.4103C66.9813 26.7662 67.0832 27.1504 67.0832 27.5632V47.1777C67.0832 47.7975 66.8722 48.3169 66.4503 48.736C66.0288 49.1555 65.5062 49.3652 64.8826 49.3652C64.2594 49.3652 63.7412 49.1555 63.328 48.736C62.9148 48.3169 62.7082 47.7975 62.7082 47.1777ZM32.8123 60.084L16.0415 50.8965C15.3609 50.5076 14.8141 49.9668 14.4009 49.2741C13.9877 48.5814 13.7811 47.834 13.7811 47.0319V34.3444L32.8123 44.7715C33.4764 45.1604 34.1771 45.3548 34.9145 45.3548C35.652 45.3548 36.361 45.1604 37.0415 44.7715L56.0728 34.3444V47.0319C56.0728 47.834 55.8662 48.5814 55.453 49.2741C55.0398 49.9668 54.4929 50.5076 53.8123 50.8965L37.0415 60.084C36.7076 60.2784 36.3644 60.4243 36.0119 60.5215C35.6595 60.6187 35.2978 60.6673 34.9269 60.6673C34.556 60.6673 34.1944 60.6187 33.8419 60.5215C33.4895 60.4243 33.1463 60.2784 32.8123 60.084Z" fill="#1C1B1F"></path>
  </g>
</svg>
