<?xml version="1.0" encoding="UTF-8"?>
<svg xmlns="http://www.w3.org/2000/svg" width="70" height="70" viewBox="0 0 70 70" fill="none">
  <mask id="mask0_2549_9910" style="mask-type:alpha" maskUnits="userSpaceOnUse" x="-1" y="0" width="71" height="71">
    <rect x="-0.291504" y="0.643555" width="70" height="70" fill="#D9D9D9"></rect>
  </mask>
  <g mask="url(#mask0_2549_9910)">
    <path d="M62.417 24.5602C63.535 24.5602 64.5437 25.0099 65.443 25.9092C66.3423 26.8085 66.792 27.8172 66.792 28.9352V34.9144C66.792 35.4491 66.7312 36.0689 66.6097 36.7738C66.4882 37.4787 66.3059 38.0984 66.0628 38.6332L57.6045 58.1748C57.167 59.1957 56.45 60.0707 55.4535 60.7998C54.4569 61.529 53.3996 61.8936 52.2816 61.8936H22.6045C21.3892 61.8936 20.3562 61.4682 19.5055 60.6175C18.6548 59.7668 18.2295 58.7339 18.2295 57.5186V26.3102C18.2295 25.7755 18.3389 25.2408 18.5576 24.7061C18.7764 24.1714 19.0802 23.7096 19.4691 23.3207L34.5628 7.42483C35.2434 6.74427 36.0576 6.33108 37.0055 6.18525C37.9535 6.03941 38.8406 6.20955 39.667 6.69566C40.4934 7.18177 41.1132 7.86233 41.5264 8.73733C41.9396 9.61233 42.0489 10.5116 41.8545 11.4352L39.0837 24.5602H62.417ZM9.69824 61.8936C8.58019 61.8936 7.60796 61.4804 6.78158 60.654C5.95519 59.8276 5.54199 58.8554 5.54199 57.7373V28.7165C5.54199 27.5984 5.95519 26.6262 6.78158 25.7998C7.60796 24.9734 8.58019 24.5602 9.69824 24.5602C10.8163 24.5602 11.7885 24.9734 12.6149 25.7998C13.4413 26.6262 13.8545 27.5984 13.8545 28.7165V57.7373C13.8545 58.8554 13.4413 59.8276 12.6149 60.654C11.7885 61.4804 10.8163 61.8936 9.69824 61.8936Z" fill="#1C1B1F"></path>
  </g>
</svg>
